<svg version="1.1" xmlns="http://www.w3.org/2000/svg" xmlns:xlink="http://www.w3.org/1999/xlink" width="167.29481" height="167.29482" viewBox="0,0,167.29481,167.29482"><g transform="translate(-236.35259,-96.35259)"><g stroke="none" stroke-miterlimit="10"><path d="M297.4782,192.2626v-43h44.42442v43z" fill="#00ff00" stroke-width="0" stroke-linejoin="miter"/><path d="M294.7209,147.79758c14.19,0.33 28.38,0.66 43,1c0.495,7.425 0.495,7.425 1,15c0.33,-4.95 0.66,-9.9 1,-15c1.65,0 3.3,0 5,0c0.14963,5.90402 0.25781,11.80692 0.32959,17.7124c0.02995,2.00377 0.07074,4.00742 0.12305,6.01074c0.5879,23.11281 0.5879,23.11282 -7.92749,32.98707c-6.85269,6.33568 -14.61233,6.91529 -23.48999,6.64136c-5.31885,-0.34882 -10.50075,-1.45849 -15.03516,-4.35156c-3.05401,-4.33628 -4.12624,-7.85977 -4.11352,-13.11401c0.00007,-1.04085 0.00015,-2.0817 0.00023,-3.1541c0.00516,-1.12196 0.01032,-2.24391 0.01564,-3.39986c0.00142,-1.14995 0.00282,-2.2999 0.00428,-3.48469c0.00561,-3.6783 0.01816,-7.35655 0.03087,-11.03484c0.00502,-2.49153 0.00957,-4.98307 0.01367,-7.47461c0.01018,-6.11267 0.02976,-12.22522 0.04883,-18.33789z" fill="#0506fd" stroke-width="1" stroke-linejoin="bevel"/><path d="M301.7209,148.79758c11.88,0 23.76,0 36,0c0,21.04603 0,21.04603 -5.86719,28.3125c-5.65984,4.75691 -10.20088,5.41262 -17.50781,5.22656c-3.625,-0.53906 -3.625,-0.53906 -12.625,-3.53906c0,-9.9 0,-19.8 0,-30z" fill="#fd0100" stroke-width="1" stroke-linejoin="miter"/><path d="M299.7209,147.79758c0.66,0 1.32,0 2,0c0,10.23 0,20.46 0,31c12.94315,3.14027 12.94316,3.14027 25.75781,0.78516c5.8427,-4.0976 8.30014,-9.03553 10.24219,-15.78516c0.33,0 0.66,0 1,0c0.5439,6.57514 0.65187,11.72388 -3.42187,17.14063c-0.52078,0.6136 -1.04156,1.22719 -1.57812,1.85938c-0.50016,0.67547 -1.00032,1.35093 -1.51562,2.04688c-3.11688,3.51 -5.84276,5.0651 -10.5,5.49219c-7.44581,0.29557 -14.25585,-0.10322 -20.98437,-3.53906c-1.4683,-12.95255 -1.09471,-25.98715 -1,-39z" fill="#00ff00" stroke-width="1" stroke-linejoin="miter"/><path d="M337.7209,163.79758c0.33,0 0.66,0 1,0c0,3.63 0,7.26 0,11c-0.66,-0.66 -1.32,-1.32 -2,-2c-0.99,0.495 -0.99,0.495 -2,1c0.99,-3.3 1.98,-6.6 3,-10z" fill="#00ff00" stroke-width="1" stroke-linejoin="miter"/><path d="M299.7209,147.79758c0.66,0 1.32,0 2,0c0,10.23 0,20.46 0,31c12.94315,3.14027 12.94316,3.14027 25.75781,0.78516c5.8427,-4.0976 8.30014,-9.03553 10.24219,-15.78516c0.33,0 0.66,0 1,0c0.5439,6.57514 0.65187,11.72388 -3.42187,17.14063c-0.52078,0.6136 -1.04156,1.22719 -1.57812,1.85938c-0.50016,0.67547 -1.00032,1.35093 -1.51562,2.04688c-3.11688,3.51 -5.84276,5.0651 -10.5,5.49219c-7.44581,0.29557 -14.25585,-0.10322 -20.98437,-3.53906c-1.4683,-12.95255 -1.09471,-25.98715 -1,-39z" fill="#00ff00" stroke-width="1" stroke-linejoin="miter"/><path d="M337.7209,163.79758c0.33,0 0.66,0 1,0c0,3.63 0,7.26 0,11c-0.66,-0.66 -1.32,-1.32 -2,-2c-0.99,0.495 -0.99,0.495 -2,1c0.99,-3.3 1.98,-6.6 3,-10z" fill="#00ff00" stroke-width="1" stroke-linejoin="miter"/><path d="M236.3526,263.6474v-167.29481h167.29481v167.29482z" fill="none" stroke-width="0" stroke-linejoin="miter"/></g></g></svg>