<svg version="1.1" xmlns="http://www.w3.org/2000/svg" xmlns:xlink="http://www.w3.org/1999/xlink" width="247.61255" height="247.61256" viewBox="0,0,247.61255,247.61256"><g transform="translate(-196.19374,-56.19373)"><g stroke="none" stroke-miterlimit="10"><path d="M330.07854,110.48931c2.20845,1.65634 3.3703,2.84937 5,5c0.59426,0.7657 1.18852,1.53141 1.80078,2.32031c3.78322,5.03939 7.3151,10.24102 10.69922,15.55469c0.67031,1.0493 1.34063,2.09859 2.03125,3.17969c1.52819,3.06451 2.07117,4.59298 1.46875,7.94531c-1.39062,1.94922 -1.39062,1.94922 -3.25,3.6875c-0.60328,0.58137 -1.20656,1.16273 -1.82812,1.76172c-1.89991,1.53306 -3.7309,2.49826 -5.92187,3.55078c1.64198,0.02187 1.64198,0.02187 3.31714,0.04419c4.07243,0.0581 8.14431,0.13533 12.21631,0.21826c1.76033,0.0332 3.52076,0.06124 5.28125,0.08398c2.53488,0.03365 5.0688,0.08597 7.60327,0.14185c1.17529,0.00958 1.17529,0.00958 2.37431,0.01936c5.94859,0.15903 9.22173,1.44796 13.33272,5.67986c5.8866,8.8299 5.35963,17.61381 4.875,27.8125c-0.0348,1.18594 -0.06961,2.37187 -0.10547,3.59375c-0.33243,3.89282 -0.62497,7.18379 -3.5332,9.98413c-8.93853,4.86216 -18.58697,4.20517 -28.48633,4.23462c-1.83336,0.02318 -3.6667,0.04855 -5.5,0.07617c-4.45843,0.06245 -8.91617,0.0951 -13.375,0.11133c0.81984,0.58008 1.63969,1.16016 2.48438,1.75781c1.08893,0.78853 2.17745,1.57763 3.26563,2.36719c1.06734,0.7657 2.13469,1.53141 3.23438,2.32031c3.1097,2.63439 5.03782,5.00418 7.01563,8.55469c0.19361,3.54952 -0.02945,5.79312 -2.30444,8.62207c-4.79841,4.74973 -9.97043,8.75122 -15.44556,12.69043c-0.84949,0.61939 -1.69898,1.23879 -2.57422,1.87695c-9.36689,6.8143 -9.36689,6.8143 -12.88672,6.77148c-4.75051,-1.20477 -7.62911,-3.31889 -11.41406,-6.33594c-0.69295,-0.53585 -1.3859,-1.07169 -2.09985,-1.62378c-5.5019,-4.29018 -10.847,-8.7601 -16.11499,-13.33325c-2.43466,-2.09597 -4.95187,-4.05672 -7.50391,-6.00781c-12.95733,-10.01909 -26.93015,-21.88827 -32.65625,-37.66016c-1.54779,-12.6532 0.99868,-20.9103 8.625,-30.9375c1.439,-1.70401 2.89818,-3.39116 4.375,-5.0625c0.73348,-0.85207 1.46695,-1.70414 2.22266,-2.58203c12.33293,-13.34927 29.17385,-22.36979 44.77734,-31.41797c1.01707,-0.63164 2.03414,-1.26328 3.08203,-1.91406c5.8073,-3.47961 9.31068,-5.25039 15.91797,-3.08594z" fill="#673f3e" stroke-width="1"/><path d="M330.07854,110.48931c2.20845,1.65634 3.3703,2.84937 5,5c0.59426,0.7657 1.18852,1.53141 1.80078,2.32031c3.78322,5.03939 7.3151,10.24102 10.69922,15.55469c0.67031,1.0493 1.34063,2.09859 2.03125,3.17969c1.52819,3.06451 2.07117,4.59298 1.46875,7.94531c-1.39062,1.94922 -1.39062,1.94922 -3.25,3.6875c-0.60328,0.58137 -1.20656,1.16273 -1.82812,1.76172c-1.89991,1.53306 -3.7309,2.49826 -5.92187,3.55078c1.64198,0.02187 1.64198,0.02187 3.31714,0.04419c4.07243,0.0581 8.14431,0.13533 12.21631,0.21826c1.76033,0.0332 3.52076,0.06124 5.28125,0.08398c2.53488,0.03365 5.0688,0.08597 7.60327,0.14185c1.17529,0.00958 1.17529,0.00958 2.37431,0.01936c5.94859,0.15903 9.22173,1.44796 13.33272,5.67986c5.8866,8.8299 5.35963,17.61381 4.875,27.8125c-0.0348,1.18594 -0.06961,2.37187 -0.10547,3.59375c-0.33243,3.89282 -0.62497,7.18379 -3.5332,9.98413c-8.93853,4.86216 -18.58697,4.20517 -28.48633,4.23462c-1.83336,0.02318 -3.6667,0.04855 -5.5,0.07617c-4.45843,0.06245 -8.91617,0.0951 -13.375,0.11133c0.81984,0.58008 1.63969,1.16016 2.48438,1.75781c1.08893,0.78853 2.17745,1.57763 3.26563,2.36719c1.06734,0.7657 2.13469,1.53141 3.23438,2.32031c3.1097,2.63439 5.03782,5.00418 7.01563,8.55469c0.19361,3.54952 -0.02945,5.79312 -2.30444,8.62207c-4.79841,4.74973 -9.97043,8.75122 -15.44556,12.69043c-0.84949,0.61939 -1.69898,1.23879 -2.57422,1.87695c-9.36689,6.8143 -9.36689,6.8143 -12.88672,6.77148c-4.75051,-1.20477 -7.62911,-3.31889 -11.41406,-6.33594c-0.69295,-0.53585 -1.3859,-1.07169 -2.09985,-1.62378c-5.5019,-4.29018 -10.847,-8.7601 -16.11499,-13.33325c-2.43466,-2.09597 -4.95187,-4.05672 -7.50391,-6.00781c-12.95733,-10.01909 -26.93015,-21.88827 -32.65625,-37.66016c-1.54779,-12.6532 0.99868,-20.9103 8.625,-30.9375c1.439,-1.70401 2.89818,-3.39116 4.375,-5.0625c0.73348,-0.85207 1.46695,-1.70414 2.22266,-2.58203c12.33293,-13.34927 29.17385,-22.36979 44.77734,-31.41797c1.01707,-0.63164 2.03414,-1.26328 3.08203,-1.91406c5.8073,-3.47961 9.31068,-5.25039 15.91797,-3.08594zM288.07854,139.48931c-1.40359,0.97143 -2.80723,1.94279 -4.21094,2.91406c-15.19974,10.11278 -15.19974,10.11278 -24.78906,25.08594c-1.44308,9.08481 -1.04521,19.10315 4,27c5.69887,7.66399 13.00273,13.61644 20.34131,19.62646c2.09256,1.73282 4.13861,3.51799 6.18945,5.2998c15.6073,15.32759 15.6073,15.32759 33.33643,23.94873c2.87395,-1.17906 4.87932,-2.8779 7.25781,-4.875c0.95777,-0.80309 1.91555,-1.60617 2.90234,-2.43359c4.38691,-3.78739 8.70241,-7.64815 12.97266,-11.56641c-4.20041,-5.40052 -8.9384,-9.64161 -14.24097,-13.91528c-10.08487,-8.24196 -10.08487,-8.24196 -10.75903,-14.08472c8.49737,-0.15204 16.94931,0.13383 25.4375,0.5c16.34032,0.97848 16.34032,0.97848 32.5625,-0.5c1.50361,-4.51084 1.26626,-8.96147 1.3125,-13.6875c0.029,-0.96873 0.05801,-1.93746 0.08789,-2.93555c0.0536,-6.09783 -0.39959,-11.5094 -4.40039,-16.37695c-4.72125,-4.09594 -10.28658,-3.47555 -16.20703,-3.51172c-1.08053,-0.01795 -2.16106,-0.0359 -3.27434,-0.0544c-3.44367,-0.05409 -6.8872,-0.08799 -10.33113,-0.12138c-2.33791,-0.03317 -4.6758,-0.06766 -7.01367,-0.10352c-5.72449,-0.08491 -11.44899,-0.15327 -17.17383,-0.20898c1.20032,-5.72715 5.3251,-7.81737 10,-11c3.94894,-2.42794 7.94988,-4.74537 12,-7c-0.8851,-4.48765 -3.42336,-7.39889 -6.25,-10.875c-0.47824,-0.59941 -0.95648,-1.19883 -1.44922,-1.81641c-0.95584,-1.19415 -1.91869,-2.38273 -2.88867,-3.56543c-0.93763,-1.15744 -1.8535,-2.33287 -2.74609,-3.52539c-1.39158,-1.87077 -1.39158,-1.87077 -3.66602,-4.21777c-13.27094,0 -28.5524,14.70055 -39,22z" fill="#232436" stroke-width="1"/><path d="M328.07854,118.48931c1.71338,1.5188 1.71338,1.5188 3.22656,3.45703c0.55687,0.70061 1.11375,1.40121 1.6875,2.12305c0.56461,0.7367 1.12922,1.4734 1.71094,2.23242c0.57234,0.7251 1.14469,1.4502 1.73438,2.19727c1.56229,1.98556 3.10837,3.98143 4.64063,5.99023c0.55607,0.67764 1.11214,1.35529 1.68506,2.05347c1.31494,1.94653 1.31494,1.94653 1.31494,4.94653c-4.28248,-1.53654 -6.41064,-4.77763 -9,-8.3125c-0.85376,-1.14223 -1.70792,-2.28416 -2.5625,-3.42578c-0.40734,-0.54866 -0.81469,-1.09731 -1.23437,-1.6626c-1.68504,-2.23966 -3.43849,-4.42192 -5.20312,-6.59912c-4.95477,0.50972 -8.53049,2.14514 -12.6875,4.75c-0.6372,0.39123 -1.2744,0.78246 -1.93091,1.18555c-29.77591,16.50762 -29.77591,16.50762 -49.38159,42.06445c-1.33279,9.89874 0.94582,18.8872 6.5625,27.125c3.29572,4.06006 7.2514,7.19204 11.34766,10.41406c2.68568,2.13904 5.26834,4.34268 7.84448,6.60889c15.95718,15.82335 15.95718,15.82335 34.49536,24.84033c3.98866,-1.43343 6.63651,-3.98334 9.75,-6.80078c1.20774,-1.06968 2.41607,-2.1387 3.625,-3.20703c0.57105,-0.5087 1.14211,-1.01739 1.73047,-1.5415c2.15701,-1.88738 4.38729,-3.67336 6.64453,-5.43896c0.99,1.485 0.99,1.485 2,3c-5.73395,5.35957 -11.49431,10.69446 -17.5,15.75c-1.16016,0.98227 -1.16016,0.98227 -2.34375,1.98438c-2.15625,1.26563 -2.15625,1.26563 -4.03906,1.24219c-3.08958,-1.42508 -5.7624,-3.34585 -8.49219,-5.35156c-0.61142,-0.44408 -1.22284,-0.88816 -1.85278,-1.3457c-9.79644,-7.1666 -19.22157,-14.59795 -28.11206,-22.87305c-2.72187,-2.46207 -5.53704,-4.74839 -8.41016,-7.03125c-8.1538,-6.64169 -15.07839,-13.44788 -16.50537,-24.3208c-0.74669,-8.16847 -0.89876,-15.88177 4.24536,-22.69238c6.54918,-7.69546 14.7709,-13.58508 23.07251,-19.23682c1.49576,-1.02819 1.49576,-1.02819 3.02173,-2.07715c6.07717,-4.16014 12.18698,-8.27091 18.35327,-12.29785c0.65428,-0.4291 1.30856,-0.85819 1.98267,-1.30029c3.18278,-2.04834 6.41891,-3.99292 9.73999,-5.80908c0.61625,-0.33999 1.2325,-0.67998 1.86743,-1.03027c2.70269,-0.83633 4.30241,-0.49823 6.97241,0.38965z" fill="#bfe9bd" stroke-width="1"/><path d="M369.07854,161.48931c2.25,-0.3125 2.25,-0.3125 5,0c3.58582,3.58582 5.75706,7.46027 6.24292,12.53955c-0.00411,0.8764 -0.00822,1.7528 -0.01245,2.65576c-0.00193,0.96293 -0.00387,1.92586 -0.00586,2.91797c-0.01837,1.4908 -0.01837,1.4908 -0.03711,3.01172c-0.00064,1.0016 -0.00129,2.0032 -0.00195,3.03516c-0.0448,7.41762 -0.0448,7.41762 -1.18555,10.83984c-12.54731,2.37344 -26.02424,0.88213 -38.75,0.5c-2.45321,-0.07176 -4.90644,-0.14295 -7.35968,-0.21399c-1.51137,-0.04397 -3.02272,-0.08846 -4.53406,-0.13354c-3.6775,-0.11258 -3.6775,-0.11258 -7.35626,-0.15247c-0.33,0.66 -0.66,1.32 -1,2c0.33,-1.32 0.66,-2.64 1,-4c17.82,0 35.64,0 54,0c2.04295,-16.28138 2.04295,-16.28138 -4,-31c-0.66,-0.66 -1.32,-1.32 -2,-2z" fill="#bbe1b9" stroke-width="1"/><path d="M275.07854,150.48931c-1.58853,4.28904 -4.43127,6.32346 -8,9c-0.66,0 -1.32,0 -2,0c1.48753,-4.01633 5.43187,-9 10,-9z" fill="#b6d9b4" stroke-width="1"/><path d="M266.07854,158.48931c0,3.19611 -0.54672,4.41718 -2,7.1875c-0.37125,0.71543 -0.7425,1.43086 -1.125,2.16797c-0.43313,0.81404 -0.43313,0.81404 -0.875,1.64453c-0.99,0 -1.98,0 -3,0c1.27722,-4.99275 3.17331,-7.57612 7,-11z" fill="#bde7bc" stroke-width="1"/><path d="M196.19375,303.80629v-247.61255h247.61255v247.61256z" fill="none" stroke-width="0"/></g></g></svg>