<svg version="1.1" xmlns="http://www.w3.org/2000/svg" xmlns:xlink="http://www.w3.org/1999/xlink" width="247.61255" height="247.61256" viewBox="0,0,247.61255,247.61256"><g transform="translate(-196.19374,-56.19373)"><g stroke="none" stroke-miterlimit="10"><path d="M329.56696,106.17457c4.91858,3.22993 7.82392,7.20429 10.9375,12.125c0.42458,0.65799 0.84917,1.31597 1.28662,1.9939c0.85674,1.32935 1.70999,2.66094 2.55957,3.99487c1.10897,1.71977 2.26015,3.41213 3.41553,5.10107c0.63551,0.93973 1.27102,1.87945 1.92578,2.84766c0.55945,0.81598 1.11891,1.63195 1.69531,2.47266c1.49627,3.12631 1.70411,5.03801 1.17969,8.46484c-1.89844,2.30078 -1.89844,2.30078 -4.375,4.3125c-0.81211,0.67676 -1.62422,1.35352 -2.46094,2.05078c-2.16406,1.63672 -2.16406,1.63672 -4.16406,2.63672c1.67957,0.02187 1.67957,0.02187 3.39307,0.04419c4.17122,0.05816 8.3419,0.13539 12.5127,0.21826c1.802,0.03317 3.60409,0.06122 5.40625,0.08398c2.59696,0.0337 5.19299,0.08602 7.78955,0.14185c0.80024,0.00639 1.60047,0.01278 2.42496,0.01936c5.51445,0.14356 9.97605,1.04342 14.08286,5.07048c0.37641,0.55172 0.75281,1.10344 1.14063,1.67188c0.58008,0.81211 0.58008,0.81211 1.17188,1.64063c2.95974,5.79079 3.40841,11.44313 3.32813,17.79688c-0.00822,0.78584 -0.01644,1.57169 -0.0249,2.38135c-0.25594,13.46024 -0.25594,13.46024 -2.2251,18.93115c-4.339,4.05602 -8.61562,5.0862 -14.40137,5.20532c-1.29089,0.02992 -1.29089,0.02992 -2.60785,0.06044c-0.91993,0.01671 -1.83985,0.03342 -2.78766,0.05064c-1.42316,0.03117 -1.42316,0.03117 -2.87506,0.06297c-3.02595,0.0653 -6.05198,0.12429 -9.07806,0.18312c-2.05339,0.0432 -4.10678,0.08682 -6.16016,0.13086c-5.02986,0.10698 -10.05981,0.2083 -15.08984,0.30664c0.96422,0.65227 1.92844,1.30453 2.92188,1.97656c1.27644,0.88224 2.55246,1.76509 3.82813,2.64844c0.63422,0.42668 1.26844,0.85336 1.92188,1.29297c4.89097,3.41349 8.57671,6.93976 10.01563,12.95703c-2.21703,10.07743 -14.9116,17.19896 -22.6875,23.125c-0.89977,0.70512 -1.79953,1.41023 -2.72656,2.13672c-0.75023,0.55301 -1.50047,1.10602 -2.27344,1.67578c-0.61875,0.4602 -1.2375,0.92039 -1.875,1.39453c-3.36224,1.25466 -5.67738,0.65487 -9.125,-0.20703c-2.43448,-1.42672 -4.53182,-2.8012 -6.75,-4.5c-0.91386,-0.67712 -0.91386,-0.67712 -1.84619,-1.36792c-4.57464,-3.4193 -9.02844,-6.98248 -13.41162,-10.6438c-2.31163,-1.92234 -4.6378,-3.8164 -6.98437,-5.69531c-1.05502,-0.84728 -1.05502,-0.84728 -2.13135,-1.71167c-1.37498,-1.1033 -2.75212,-2.20391 -4.13184,-3.30127c-3.97837,-3.20493 -7.63597,-6.58 -11.2085,-10.2312c-1.7598,-1.77434 -3.61347,-3.39102 -5.53613,-4.98633c-8.7184,-7.60756 -16.91269,-17.50569 -18.34375,-29.42578c-0.54593,-12.05151 3.52629,-21.08007 11.36353,-29.97681c2.26447,-2.45165 4.61678,-4.80335 6.98022,-7.15991c0.66902,-0.72832 1.33805,-1.45664 2.02734,-2.20703c12.88302,-13.80907 31.98559,-23.52219 48.34766,-32.60547c1.12148,-0.6252 2.24297,-1.25039 3.39844,-1.89453c3.80615,-1.52523 6.1632,-1.89376 10.22656,-1.29297z" fill="#7b4b4b" stroke-width="1"/><path d="M329.56696,106.17457c4.91858,3.22993 7.82392,7.20429 10.9375,12.125c0.42458,0.65799 0.84917,1.31597 1.28662,1.9939c0.85674,1.32935 1.70999,2.66094 2.55957,3.99487c1.10897,1.71977 2.26015,3.41213 3.41553,5.10107c0.63551,0.93973 1.27102,1.87945 1.92578,2.84766c0.55945,0.81598 1.11891,1.63195 1.69531,2.47266c1.49627,3.12631 1.70411,5.03801 1.17969,8.46484c-1.89844,2.30078 -1.89844,2.30078 -4.375,4.3125c-0.81211,0.67676 -1.62422,1.35352 -2.46094,2.05078c-2.16406,1.63672 -2.16406,1.63672 -4.16406,2.63672c1.67957,0.02187 1.67957,0.02187 3.39307,0.04419c4.17122,0.05816 8.3419,0.13539 12.5127,0.21826c1.802,0.03317 3.60409,0.06122 5.40625,0.08398c2.59696,0.0337 5.19299,0.08602 7.78955,0.14185c0.80024,0.00639 1.60047,0.01278 2.42496,0.01936c5.51445,0.14356 9.97605,1.04342 14.08286,5.07048c0.37641,0.55172 0.75281,1.10344 1.14063,1.67188c0.58008,0.81211 0.58008,0.81211 1.17188,1.64063c2.95974,5.79079 3.40841,11.44313 3.32813,17.79688c-0.00822,0.78584 -0.01644,1.57169 -0.0249,2.38135c-0.25594,13.46024 -0.25594,13.46024 -2.2251,18.93115c-4.339,4.05602 -8.61562,5.0862 -14.40137,5.20532c-1.29089,0.02992 -1.29089,0.02992 -2.60785,0.06044c-0.91993,0.01671 -1.83985,0.03342 -2.78766,0.05064c-1.42316,0.03117 -1.42316,0.03117 -2.87506,0.06297c-3.02595,0.0653 -6.05198,0.12429 -9.07806,0.18312c-2.05339,0.0432 -4.10678,0.08682 -6.16016,0.13086c-5.02986,0.10698 -10.05981,0.2083 -15.08984,0.30664c0.96422,0.65227 1.92844,1.30453 2.92188,1.97656c1.27644,0.88224 2.55246,1.76509 3.82813,2.64844c0.63422,0.42668 1.26844,0.85336 1.92188,1.29297c4.89097,3.41349 8.57671,6.93976 10.01563,12.95703c-2.21703,10.07743 -14.9116,17.19896 -22.6875,23.125c-0.89977,0.70512 -1.79953,1.41023 -2.72656,2.13672c-0.75023,0.55301 -1.50047,1.10602 -2.27344,1.67578c-0.61875,0.4602 -1.2375,0.92039 -1.875,1.39453c-3.36224,1.25466 -5.67738,0.65487 -9.125,-0.20703c-2.43448,-1.42672 -4.53182,-2.8012 -6.75,-4.5c-0.91386,-0.67712 -0.91386,-0.67712 -1.84619,-1.36792c-4.57464,-3.4193 -9.02844,-6.98248 -13.41162,-10.6438c-2.31163,-1.92234 -4.6378,-3.8164 -6.98437,-5.69531c-1.05502,-0.84728 -1.05502,-0.84728 -2.13135,-1.71167c-1.37498,-1.1033 -2.75212,-2.20391 -4.13184,-3.30127c-3.97837,-3.20493 -7.63597,-6.58 -11.2085,-10.2312c-1.7598,-1.77434 -3.61347,-3.39102 -5.53613,-4.98633c-8.7184,-7.60756 -16.91269,-17.50569 -18.34375,-29.42578c-0.54593,-12.05151 3.52629,-21.08007 11.36353,-29.97681c2.26447,-2.45165 4.61678,-4.80335 6.98022,-7.15991c0.66902,-0.72832 1.33805,-1.45664 2.02734,-2.20703c12.88302,-13.80907 31.98559,-23.52219 48.34766,-32.60547c1.12148,-0.6252 2.24297,-1.25039 3.39844,-1.89453c3.80615,-1.52523 6.1632,-1.89376 10.22656,-1.29297zM316.37946,117.98707c-0.71124,0.40452 -1.42248,0.80905 -2.15527,1.22583c-7.07231,4.09175 -13.76065,8.66584 -20.42383,13.38599c-2.48239,1.75135 -4.97801,3.48278 -7.47559,5.2124c-1.79444,1.24585 -3.58871,2.49194 -5.38281,3.73828c-1.26215,0.87435 -1.26215,0.87435 -2.5498,1.76636c-6.53424,4.56279 -12.38873,8.79021 -17.0752,15.35864c-0.66516,0.91781 -1.33031,1.83562 -2.01562,2.78125c-4.72052,7.39974 -4.59477,14.86638 -3.33984,23.40234c3.06956,12.37726 12.42345,20.42887 21.99023,28.03174c2.41548,1.92114 4.79386,3.88702 7.17773,5.84717c1.34578,1.09248 1.34578,1.09248 2.71875,2.20703c1.82792,1.49963 3.64034,3.01833 5.4375,4.55469c6.05882,5.16831 12.28313,10.08909 18.65625,14.86328c0.76127,0.58942 1.52254,1.17885 2.30688,1.78613c4.33901,3.22652 4.33901,3.22652 9.55249,4.14746c3.22494,-1.30728 5.14102,-2.82844 7.64063,-5.24609c0.85336,-0.81082 1.70672,-1.62164 2.58594,-2.45703c0.83789,-0.79793 1.67578,-1.59586 2.53906,-2.41797c2.1219,-1.81524 4.25749,-3.61124 6.40625,-5.39453c1.72587,-1.73856 2.62379,-3.36971 3.59375,-5.60547c-4.57931,-4.72931 -9.52962,-8.94443 -14.56055,-13.18359c-9.26394,-7.91391 -9.26394,-7.91391 -10.43945,-14.81641c0.80292,0.03029 1.60585,0.06059 2.43311,0.0918c14.41701,0.53298 28.82585,1.00837 43.25439,1.0332c1.08458,0.00451 2.16917,0.00902 3.28662,0.01367c1.50361,-0.0029 1.50361,-0.0029 3.0376,-0.00586c0.871,-0.00113 1.74201,-0.00226 2.6394,-0.00342c2.24779,-0.12383 4.1928,-0.50143 6.34888,-1.12939c2.04058,-10.41856 2.63823,-22.31399 -1.73437,-32.15234c-1.57027,-2.2924 -2.87403,-3.40032 -5.26562,-4.84766c-3.27817,-0.58539 -3.27817,-0.58539 -7,-0.68359c-0.69497,-0.03323 -1.38993,-0.06646 -2.10596,-0.10069c-8.95957,-0.38087 -17.92868,-0.32357 -26.89404,-0.27821c-1.75781,0.00503 -3.51562,0.00959 -5.27344,0.01367c-4.24222,0.01085 -8.48438,0.02801 -12.72656,0.04883c3.69831,-9.90022 15.27873,-14.81037 24,-20c-2.07817,-4.4013 -4.89296,-8.06479 -7.8125,-11.9375c-0.52143,-0.70318 -1.04285,-1.40637 -1.58008,-2.13086c-2.95913,-3.94182 -5.87596,-7.69433 -9.60742,-10.93164c-4.05998,0 -6.75592,1.84862 -10.1875,3.8125z" fill="#232335" stroke-width="1"/><path d="M325.75885,114.40065c7.54269,3.22851 15.54294,15.73318 19.80811,22.77393c-0.495,1.485 -0.495,1.485 -1,3c-3.94805,-3.77578 -7.30512,-7.79274 -10.625,-12.125c-0.94863,-1.23322 -1.8991,-2.46504 -2.85156,-3.69531c-0.41331,-0.53899 -0.82661,-1.07798 -1.25244,-1.6333c-1.34924,-1.64158 -2.66868,-3.14749 -4.271,-4.54639c-4.42261,0.15931 -7.88479,2.42441 -11.5625,4.6875c-0.64058,0.38938 -1.28117,0.77875 -1.94116,1.17993c-8.29029,5.12675 -16.21138,10.80164 -24.14282,16.46069c-2.15473,1.53066 -4.32083,3.04277 -6.49414,4.54688c-13.57385,9.28983 -13.57385,9.28983 -21.85937,23.125c-1.24831,10.1529 -0.17984,19.91612 5.8125,28.375c5.28707,6.32659 11.83365,11.419 18.1875,16.625c0.93199,0.77344 1.86398,1.54688 2.82422,2.34375c2.71102,2.2369 5.44022,4.44944 8.17578,6.65625c0.57895,0.46938 1.1579,0.93876 1.75439,1.42236c4.39034,3.55779 8.80584,7.08176 13.24561,10.57764c0.55349,0.43893 1.10698,0.87785 1.67725,1.33008c1.49212,1.1753 3.0007,2.3296 4.51025,3.48242c0.83918,0.64582 1.67836,1.29164 2.54297,1.95703c2.11804,1.3763 2.11804,1.3763 4.17188,1.25391c3.22346,-1.57271 5.79293,-3.86772 8.47266,-6.21094c0.55172,-0.46986 1.10344,-0.93973 1.67188,-1.42383c3.83194,-3.29672 7.41408,-6.78013 10.95313,-10.38867c1.485,0.495 1.485,0.495 3,1c-1.31426,2.93292 -2.69314,4.91348 -5.04687,7.09375c-0.59812,0.55559 -1.19625,1.11117 -1.8125,1.68359c-0.62391,0.56848 -1.24781,1.13695 -1.89062,1.72266c-0.60844,0.56848 -1.21687,1.13695 -1.84375,1.72266c-9.40797,8.66418 -9.40797,8.66418 -14.23437,8.9375c-4.6721,-1.70888 -8.09458,-4.59685 -11.92187,-7.72266c-1.20415,-0.96172 -1.20415,-0.96172 -2.43262,-1.94287c-1.5823,-1.26539 -3.16089,-2.53543 -4.73535,-3.81055c-2.4247,-1.96125 -4.879,-3.88345 -7.33203,-5.80908c-4.58783,-3.68764 -9.04731,-7.52246 -13.49341,-11.37891c-3.64948,-3.1576 -7.38051,-6.16137 -11.19409,-9.12109c-9.03586,-7.38571 -14.13663,-15.93818 -15.41016,-27.54297c-0.44,-9.62363 2.27921,-17.16904 8.80859,-24.35937c7.59458,-7.2669 16.49347,-13.03095 25.18359,-18.88525c1.65299,-1.11398 3.30385,-2.23112 4.95313,-3.35059c2.73441,-1.85557 5.47389,-3.70342 8.21484,-5.54932c0.84667,-0.57444 1.69334,-1.14888 2.56567,-1.74072c4.41806,-2.95852 8.89926,-5.77513 13.50854,-8.42725c0.8826,-0.50813 1.76521,-1.01626 2.67456,-1.53979c2.43872,-0.97974 2.43872,-0.97974 4.63062,-0.75366z" fill="#daecd8" stroke-width="1"/><path d="M355.56696,160.17457c3.22869,-0.14584 6.45652,-0.23424 9.6875,-0.3125c0.91201,-0.04189 1.82402,-0.08379 2.76367,-0.12695c4.40042,-0.08001 6.79989,-0.07204 10.50586,2.45898c4.46764,6.51781 5.50359,12.29925 5.29297,20.10547c-0.00516,0.77215 -0.01031,1.5443 -0.01562,2.33984c-0.05825,4.27405 -0.40108,8.32837 -1.23437,12.53516c-4.09004,1.14983 -8.03177,1.11094 -12.25,1.0625c-0.74508,-0.00451 -1.49016,-0.00902 -2.25781,-0.01367c-1.83076,-0.01174 -3.66149,-0.02967 -5.49219,-0.04883c0,-0.33 0,-0.66 0,-1c7.92,-0.495 7.92,-0.495 16,-1c0.10869,-3.81328 0.18766,-7.62341 0.25,-11.4375c0.03352,-1.06928 0.06703,-2.13855 0.10156,-3.24023c0.08182,-6.68855 -0.34999,-12.71349 -4.35156,-18.32227c-3.71279,-1.2376 -7.31306,-1.35609 -11.1875,-1.5625c-0.74959,-0.04318 -1.49918,-0.08637 -2.27148,-0.13086c-1.8468,-0.10587 -3.69388,-0.20674 -5.54102,-0.30664c0,-0.33 0,-0.66 0,-1z" fill="#d8e9d6" stroke-width="1"/><path d="M255.56696,169.17457c3,2 3,2 3.52417,3.87939c0.06808,0.74363 0.13616,1.48726 0.2063,2.25342c0.08057,0.80566 0.16113,1.61133 0.24414,2.44141c0.07025,0.84176 0.14051,1.68352 0.21289,2.55078c0.12278,1.27424 0.12278,1.27424 0.24805,2.57422c0.20048,2.09912 0.38407,4.19984 0.56445,6.30078c-0.99,0.33 -1.98,0.66 -3,1c-2.21212,-7.05112 -2.20177,-13.64658 -2,-21z" fill="#d3e3d1" stroke-width="1"/><path d="M196.19375,303.80629v-247.61255h247.61255v247.61256z" fill="none" stroke-width="0"/></g></g></svg>