<svg version="1.1" xmlns="http://www.w3.org/2000/svg" xmlns:xlink="http://www.w3.org/1999/xlink" width="46.95388" height="46.95388" viewBox="0,0,46.95388,46.95388"><g transform="translate(-296.52308,-156.52307)"><g stroke="none" stroke-miterlimit="10"><path d="M321.81278,194.83652c-0.63964,0.08673 -1.06898,0.11547 -1.66219,-0.14963c-0.14406,-0.07807 -0.28387,-0.15384 -0.4237,-0.22962c-2.12898,-1.15094 -4.19107,-2.39644 -6.22212,-3.71216c-0.14103,-0.0918 -0.27792,-0.1809 -0.41481,-0.27c-1.30128,-0.84481 -2.5532,-1.69 -3.62216,-2.82661c-0.1224,-0.13499 -0.24119,-0.26601 -0.35999,-0.39703c-0.9514,-1.00698 -1.86583,-2.00904 -2.60069,-3.1881c-0.08286,-0.14103 -0.16328,-0.27792 -0.2437,-0.41481c-0.81045,-1.29267 -0.85529,-2.55544 -0.82221,-4.04437c0.20844,-2.27838 2.00385,-4.28875 3.6666,-5.73323c0.36551,-0.30922 0.72146,-0.61396 1.05628,-0.95628c0.79704,-0.84309 1.67861,-1.5528 2.5945,-2.26085c0.62109,-0.48014 1.23682,-0.96486 1.8432,-1.46354c1.1106,-0.91504 2.22231,-1.82566 3.38217,-2.67806c0.11711,-0.085 0.23078,-0.16753 0.34444,-0.25004c0.57095,-0.42134 1.14439,-0.78566 1.78145,-1.10295c0.56518,-0.09407 0.56518,-0.09407 1.12887,0.17555c0.1992,0.1501 0.39256,0.29579 0.58591,0.44148c0.21652,0.16068 0.4328,0.32168 0.64887,0.48296c0.32994,0.25434 0.65978,0.50754 0.9959,0.75368c1.44622,1.04806 3.44345,2.2193 3.78327,4.07289c-0.19165,0.90595 -0.51895,1.40748 -1.21924,2.017c-0.20198,0.14834 -0.39803,0.29231 -0.59407,0.43629c-0.56069,0.41806 -1.06787,0.77654 -1.70812,1.0585c-0.1365,0.04709 -0.26899,0.09281 -0.40147,0.13851c0,0.12894 0,0.2541 0,0.37925c0.38388,-0.10823 0.73985,-0.18839 1.13849,-0.21498c0.13762,-0.00075 0.27118,-0.00147 0.40476,-0.00219c0.23343,-0.00184 0.23343,-0.00184 0.46223,-0.00366c0.16812,-0.00021 0.33129,-0.00043 0.49446,-0.00064c0.34754,-0.0013 0.69506,-0.0024 1.04258,-0.00334c0.54639,0.00004 1.09271,-0.00038 1.63909,-0.00384c0.35717,-0.00235 0.71435,-0.00384 1.07152,-0.00442c0.25927,-0.00013 0.25927,-0.00013 0.51341,-0.00026c0.80714,-0.00675 1.53532,-0.03192 2.30742,0.2205c0.1385,0.06883 0.27293,0.13564 0.40736,0.20245c0.69925,0.24889 0.69925,0.24889 1.03998,0.45333c0.64419,0.68402 0.64419,0.68402 0.70893,4.17507c0.0026,0.24223 0.0026,0.24223 0.00514,0.47967c0.01842,1.54438 -0.19719,2.92605 -1.18516,4.18364c-0.89329,0.76965 -1.70474,1.05609 -2.87425,1.05556c-0.24826,-0.00749 -0.24826,-0.00749 -0.49161,-0.01483c-0.52925,-0.00417 -1.05815,-0.00948 -1.58729,-0.02107c-0.36669,-0.00823 -0.73342,-0.01469 -1.10017,-0.01944c-0.84968,-0.00896 -1.69921,-0.01979 -2.54876,-0.03704c-0.23447,-0.00512 -0.46205,-0.01009 -0.68962,-0.01505c0.15749,0.09463 0.15749,0.09463 0.31185,0.1874c0.13979,0.08537 0.27544,0.16824 0.41111,0.2511c0.76596,0.46459 1.2436,0.89948 1.7422,1.64738c0.0869,0.60831 0.02905,0.89441 -0.26518,1.4385c-0.18928,0.26709 -0.18928,0.26709 -0.37481,0.52888c-0.21135,0.30225 -0.21135,0.30225 -0.41851,0.59851c-0.23786,0.3373 -0.47035,0.67599 -0.69508,1.0222c-0.85256,1.33828 -1.61263,2.76192 -2.98707,3.61771z" fill="#fd0201" stroke-width="1"/><path d="M321.81278,194.83652c-0.63964,0.08673 -1.06898,0.11547 -1.66219,-0.14963c-0.14406,-0.07807 -0.28387,-0.15384 -0.4237,-0.22962c-2.12898,-1.15094 -4.19107,-2.39644 -6.22212,-3.71216c-0.14103,-0.0918 -0.27792,-0.1809 -0.41481,-0.27c-1.30128,-0.84481 -2.5532,-1.69 -3.62216,-2.82661c-0.1224,-0.13499 -0.24119,-0.26601 -0.35999,-0.39703c-0.9514,-1.00698 -1.86583,-2.00904 -2.60069,-3.1881c-0.08286,-0.14103 -0.16328,-0.27792 -0.2437,-0.41481c-0.81045,-1.29267 -0.85529,-2.55544 -0.82221,-4.04437c0.20844,-2.27838 2.00385,-4.28875 3.6666,-5.73323c0.36551,-0.30922 0.72146,-0.61396 1.05628,-0.95628c0.79704,-0.84309 1.67861,-1.5528 2.5945,-2.26085c0.62109,-0.48014 1.23682,-0.96486 1.8432,-1.46354c1.1106,-0.91504 2.22231,-1.82566 3.38217,-2.67806c0.11711,-0.085 0.23078,-0.16753 0.34444,-0.25004c0.57095,-0.42134 1.14439,-0.78566 1.78145,-1.10295c0.56518,-0.09407 0.56518,-0.09407 1.12887,0.17555c0.1992,0.1501 0.39256,0.29579 0.58591,0.44148c0.21652,0.16068 0.4328,0.32168 0.64887,0.48296c0.32994,0.25434 0.65978,0.50754 0.9959,0.75368c1.44622,1.04806 3.44345,2.2193 3.78327,4.07289c-0.19165,0.90595 -0.51895,1.40748 -1.21924,2.017c-0.20198,0.14834 -0.39803,0.29231 -0.59407,0.43629c-0.56069,0.41806 -1.06787,0.77654 -1.70812,1.0585c-0.1365,0.04709 -0.26899,0.09281 -0.40147,0.13851c0,0.12894 0,0.2541 0,0.37925c0.38388,-0.10823 0.73985,-0.18839 1.13849,-0.21498c0.13762,-0.00075 0.27118,-0.00147 0.40476,-0.00219c0.23343,-0.00184 0.23343,-0.00184 0.46223,-0.00366c0.16812,-0.00021 0.33129,-0.00043 0.49446,-0.00064c0.34754,-0.0013 0.69506,-0.0024 1.04258,-0.00334c0.54639,0.00004 1.09271,-0.00038 1.63909,-0.00384c0.35717,-0.00235 0.71435,-0.00384 1.07152,-0.00442c0.25927,-0.00013 0.25927,-0.00013 0.51341,-0.00026c0.80714,-0.00675 1.53532,-0.03192 2.30742,0.2205c0.1385,0.06883 0.27293,0.13564 0.40736,0.20245c0.69925,0.24889 0.69925,0.24889 1.03998,0.45333c0.64419,0.68402 0.64419,0.68402 0.70893,4.17507c0.0026,0.24223 0.0026,0.24223 0.00514,0.47967c0.01842,1.54438 -0.19719,2.92605 -1.18516,4.18364c-0.89329,0.76965 -1.70474,1.05609 -2.87425,1.05556c-0.24826,-0.00749 -0.24826,-0.00749 -0.49161,-0.01483c-0.52925,-0.00417 -1.05815,-0.00948 -1.58729,-0.02107c-0.36669,-0.00823 -0.73342,-0.01469 -1.10017,-0.01944c-0.84968,-0.00896 -1.69921,-0.01979 -2.54876,-0.03704c-0.23447,-0.00512 -0.46205,-0.01009 -0.68962,-0.01505c0.15749,0.09463 0.15749,0.09463 0.31185,0.1874c0.13979,0.08537 0.27544,0.16824 0.41111,0.2511c0.76596,0.46459 1.2436,0.89948 1.7422,1.64738c0.0869,0.60831 0.02905,0.89441 -0.26518,1.4385c-0.18928,0.26709 -0.18928,0.26709 -0.37481,0.52888c-0.21135,0.30225 -0.21135,0.30225 -0.41851,0.59851c-0.23786,0.3373 -0.47035,0.67599 -0.69508,1.0222c-0.85256,1.33828 -1.61263,2.76192 -2.98707,3.61771zM318.8262,191.75504c0.66354,0.40642 1.22772,0.76867 2.00366,0.88813c0.72033,-0.30422 0.72033,-0.30422 1.20738,-0.95332c0.18952,-0.25105 0.37991,-0.50148 0.57416,-0.74888c0.1697,-0.21483 0.33899,-0.42997 0.50791,-0.64541c0.08769,-0.11224 0.1728,-0.22119 0.25791,-0.33013c0.48756,-0.62359 0.96024,-1.22545 1.27998,-1.95552c-1.65378,-0.98408 -3.84974,-1.91518 -4.55103,-3.79253c1.29394,-0.01453 2.58787,-0.03053 3.88178,-0.04889c0.65969,-0.00951 1.31937,-0.0192 1.97908,-0.02679c0.64626,-0.00705 1.29249,-0.01457 1.93871,-0.0243c0.37234,-0.00562 0.37234,-0.00562 0.73732,-0.01113c0.24483,-0.00226 0.48248,-0.00444 0.72011,-0.00664c0.22682,-0.00388 0.44697,-0.00765 0.66712,-0.01142c0.75832,-0.00986 0.99796,-0.00964 1.64308,-0.43971c0.79609,-1.13908 1.05688,-2.20147 1.04072,-3.57623c-0.01084,-0.28878 -0.01084,-0.28878 -0.02148,-0.57184c-0.01361,-0.97699 0.01049,-1.92277 -0.26074,-2.86809c-0.6089,-0.11885 -1.18608,-0.1912 -1.80695,-0.21148c-0.25577,0.00139 -0.50401,0.00273 -0.75226,0.00408c-1.81646,0.00894 -3.63227,0.0523 -5.4481,0.0988c-0.36425,0.00935 -0.72851,0.01855 -1.09277,0.0276c-0.84857,0.02092 -1.69713,0.042 -2.54569,0.06361c-0.23118,0.00591 -0.45555,0.01166 -0.67994,0.0174c0.20002,-0.92812 0.62573,-1.62913 1.36293,-2.23996c0.52538,-0.40862 1.04036,-0.82662 1.55109,-1.25331c0.12138,-0.10175 0.23921,-0.20049 0.35703,-0.29925c0.12442,-0.10175 0.24517,-0.20049 0.36593,-0.29925c0.11837,-0.09973 0.23326,-0.19653 0.34815,-0.29333c0.48597,-0.4036 0.64786,-0.67842 0.75554,-1.30368c-0.74246,-0.67281 -1.49543,-1.33311 -2.25107,-1.99108c-0.18562,-0.15715 -0.36577,-0.30969 -0.54592,-0.46222c-0.48619,-0.41441 -0.87416,-0.72494 -1.47256,-0.94888c-0.48146,-0.0462 -0.48146,-0.0462 -0.9148,0.19555c-0.17151,0.12315 -0.33798,0.24269 -0.50444,0.36221c-0.35129,0.25118 -0.70032,0.50458 -1.04652,0.76272c-0.13176,0.0993 -0.25965,0.1957 -0.38754,0.29208c-0.95032,0.71455 -1.88435,1.44228 -2.79699,2.2044c-0.53084,0.44989 -1.06122,0.8986 -1.60219,1.33627c-1.61844,1.30214 -3.26939,2.63605 -4.60807,4.234c-1.13221,1.56024 -1.31657,3.31358 -1.12591,5.20288c2.12112,3.42629 2.12112,3.42629 5.53175,5.75175c0.37138,0.25757 0.74103,0.51682 1.10775,0.78101c1.36232,0.98888 2.73166,1.95713 4.16932,2.83448c0.14502,0.08715 0.28578,0.17172 0.42653,0.2563z" fill="#0609fb" stroke-width="1"/><path d="M321.25656,193.22688c-0.39185,0.09259 -0.39185,0.09259 -0.90517,-0.09407c-0.20023,-0.11384 -0.39455,-0.22432 -0.58888,-0.33481c-1.30918,-0.74209 -2.56135,-1.56724 -3.79993,-2.42088c-0.13851,-0.09563 -0.27296,-0.18846 -0.4074,-0.28129c-1.67243,-1.14705 -3.34574,-2.29428 -4.95617,-3.52776c-0.11612,-0.09002 -0.22882,-0.1774 -0.34152,-0.26477c-0.60805,-0.46571 -1.168,-0.94447 -1.66219,-1.53182c-0.14808,-0.18839 -0.29182,-0.37123 -0.43555,-0.55406c-1.16153,-1.41105 -1.12825,-2.98437 -0.9935,-4.7301c0.2347,-2.01647 1.55736,-3.55704 3.07939,-4.79863c0.88481,-0.69467 1.73821,-1.41488 2.58367,-2.157c0.86035,-0.75862 1.73738,-1.48376 2.64653,-2.18339c0.31839,-0.24499 0.63565,-0.49145 0.95202,-0.73906c0.34126,-0.26744 0.6832,-0.53401 1.02581,-0.79971c0.17654,-0.13675 0.3479,-0.26948 0.51925,-0.40221c0.17957,-0.14129 0.35386,-0.27842 0.52814,-0.41555c0.17402,-0.13424 0.34294,-0.26452 0.51184,-0.39481c0.61111,-0.4762 1.06724,-0.77083 1.85181,-0.82517c1.62161,1.08108 3.73816,2.52942 4.55103,4.36141c-0.28729,0.09577 -0.28729,0.09577 -0.56888,0.18963c-0.52241,-0.73568 -0.52241,-0.73568 -1.24072,-1.31183c-0.23528,-0.19939 -0.23528,-0.19939 -0.46592,-0.39481c-0.26821,-0.2323 -0.26821,-0.2323 -0.5311,-0.46c-0.18613,-0.15792 -0.36676,-0.31117 -0.5474,-0.46444c-0.48975,-0.41816 -0.882,-0.73516 -1.48516,-0.96146c-0.48084,-0.04527 -0.48084,-0.04527 -0.91406,0.19629c-0.17151,0.12315 -0.33798,0.24269 -0.50444,0.36221c-0.35129,0.25118 -0.70032,0.50458 -1.04652,0.76272c-0.13176,0.0993 -0.25965,0.1957 -0.38754,0.29208c-0.95032,0.71455 -1.88435,1.44228 -2.79699,2.2044c-0.53326,0.45183 -1.06613,0.90255 -1.60887,1.34295c-1.40816,1.13568 -2.80751,2.28385 -4.04734,3.60513c-1.42434,1.69964 -1.64895,3.46075 -1.49034,5.63546c0.75783,2.27346 2.66629,3.66311 4.55845,4.97473c0.38667,0.26788 0.77031,0.53845 1.15017,0.81591c1.44237,1.06635 2.88862,2.11894 4.40437,3.07962c0.15192,0.09493 0.29938,0.18707 0.44684,0.27921c0.9299,0.59355 1.76091,1.14999 2.90366,1.09035c0.4728,-0.42377 0.4728,-0.42377 0.71767,-0.79147c0.15499,-0.23291 0.31757,-0.46094 0.48684,-0.68369c0.26826,-0.34421 0.53353,-0.69058 0.79841,-1.03739c0.52234,-0.69549 0.93551,-1.3618 1.7896,-1.65923c0,0.60796 0,0.60796 -2.26487,3.40633c-0.08421,0.1031 -0.16596,0.20317 -0.24769,0.30323c-0.39947,0.48917 -0.76997,0.92886 -1.26738,1.31775z" fill="#19ef19" stroke-width="1"/><path d="M329.5875,183.83816c0.71644,-0.09681 1.04476,-0.21467 1.51701,-0.7585c1.03322,-3.00682 1.03322,-3.00682 0.56888,-6.25767c-3.73265,0.15675 -7.45231,0.21548 -11.18795,0.18963c-0.06448,-0.12894 -0.12706,-0.2541 -0.18963,-0.37925c0.86874,-0.02282 1.73748,-0.04537 2.60625,-0.06741c0.35987,-0.00909 0.71973,-0.01823 1.07961,-0.0274c1.82163,-0.04798 3.64335,-0.09765 5.46564,-0.11054c0.21182,-0.00104 0.21182,-0.00104 0.41944,-0.00207c0.88212,-0.00477 1.69881,0.03816 2.56515,0.2074c0.21785,0.74953 0.21785,0.74953 0.23406,2.31071c0.001,0.20161 0.00199,0.39728 0.00296,0.59295c0.03322,1.64323 -0.02473,2.74927 -1.03109,4.10067c-0.69047,0.50635 -0.69047,0.50635 -2.05033,0.39111c0,-0.06448 0,-0.12706 0,-0.18963z" fill="#2ddc24" stroke-width="1"/><path d="M312.14188,187.6307c-0.44189,-0.22095 -0.44189,-0.22095 -1.30998,-0.89221c-0.12277,-0.09558 -0.24195,-0.18833 -0.36111,-0.2811c-0.68558,-0.52226 -1.33292,-1.03306 -1.88885,-1.69553c-0.14355,-0.1851 -0.28288,-0.36477 -0.42221,-0.54443c-0.76609,-0.93065 -1.00579,-1.7823 -1.04049,-2.97088c-0.00083,-0.15445 -0.00165,-0.30435 -0.00245,-0.45425c-0.00984,-1.19942 0.19194,-2.10645 0.66369,-3.2118c0.19342,0 0.38115,0 0.56888,0c-0.5147,1.52876 -0.68794,2.93918 -0.56888,4.55103c1.68864,2.90856 1.68864,2.90856 4.4377,4.9414c0.16748,0.12517 0.33003,0.24666 0.49258,0.36815c-0.19342,0.06448 -0.38115,0.12706 -0.56888,0.18963z" fill="#1bed1a" stroke-width="1"/><path d="M307.50074,182.84204c-0.36135,-0.41394 -0.36135,-0.41394 -0.36694,-1.52049c0.00226,-0.15576 0.00447,-0.30695 0.00666,-0.45814c-0.01838,-1.23258 0.14914,-2.14666 0.63999,-3.28291c0.19342,0 0.38115,0 0.56888,0c-0.5147,1.52876 -0.68794,2.93918 -0.56888,4.55103c0.06448,0.19342 0.12706,0.38115 0.18963,0.56888c-0.06448,0.12894 -0.12706,0.2541 -0.18963,0.37925c-0.0951,-0.0808 -0.18741,-0.15922 -0.27971,-0.23763z" fill="#09f90c" stroke-width="1"/><path d="M343.47696,156.52307v46.95388h-46.95388v-46.95388z" fill="none" stroke-width="0"/></g></g></svg>