<svg version="1.1" xmlns="http://www.w3.org/2000/svg" xmlns:xlink="http://www.w3.org/1999/xlink" width="268.79526" height="268.79527" viewBox="0,0,268.79526,268.79527"><defs><radialGradient cx="320.00003" cy="179.99995" r="84.93672" gradientUnits="userSpaceOnUse" id="color-1"><stop offset="0" stop-color="#ff9999"/><stop offset="1" stop-color="#be0000"/></radialGradient><radialGradient cx="320.00003" cy="179.99996" r="94.89617" gradientUnits="userSpaceOnUse" id="color-2"><stop offset="0" stop-color="#7c3333"/><stop offset="1" stop-color="#7c3333" stop-opacity="0"/></radialGradient></defs><g transform="translate(-185.60237,-45.60236)"><g stroke="none" stroke-miterlimit="10"><path d="M331.50419,95.68023c8.1068,5.06134 12.94087,13.33358 17.91154,21.23604c0.79633,1.21827 1.59353,2.43598 2.3916,3.65311c0.74444,1.16914 1.4889,2.33829 2.2559,3.54286c0.67238,1.05448 1.34477,2.10898 2.03752,3.19543c1.65262,3.52863 1.86272,5.77143 1.45659,9.62337c-2.29993,3.92904 -5.04591,5.98112 -8.854,8.30698c-0.78152,0.47989 -1.56306,0.95977 -2.36827,1.4542c-0.89312,0.54167 -0.89313,0.54167 -1.80431,1.09429c1.30846,0.01014 2.61695,0.02029 3.96507,0.03075c4.87813,0.04344 9.75551,0.11487 14.63316,0.19453c2.10669,0.03054 4.2135,0.05362 6.32035,0.0689c3.03757,0.02337 6.07368,0.07407 9.11081,0.12987c0.93433,0.00133 1.86866,0.00266 2.83129,0.00403c6.31005,0.15168 10.03828,1.39246 15.24561,4.99965c4.344,5.09651 6.78439,11.96349 6.80165,18.59848c0.0028,1.0551 0.0056,2.11021 0.00848,3.19728c-0.00839,1.09148 -0.01679,2.18297 -0.02544,3.30753c0.00839,1.0663 0.01679,2.13258 0.02544,3.23119c-0.0085,3.2304 -0.12465,6.43404 -0.29683,9.65968c-0.03988,1.08133 -0.07977,2.16269 -0.12085,3.27679c-0.31058,3.23713 -0.78921,5.66675 -2.05024,8.66424c-6.78606,5.42463 -14.45651,6.22979 -22.83889,6.19524c-1.09301,0.01642 -2.18601,0.03283 -3.31213,0.04975c-3.45042,0.04622 -6.89982,0.05611 -10.35051,0.06475c-2.35629,0.02515 -4.71254,0.05269 -7.06878,0.08269c-5.74013,0.06792 -11.47986,0.10609 -17.22035,0.12085c0.88683,0.57652 1.77367,1.15305 2.68738,1.74705c1.1674,0.76684 2.3348,1.53368 3.53758,2.32377c1.1555,0.75564 2.31102,1.51128 3.50154,2.28982c5.96951,4.20339 10.03276,8.07274 12.12019,15.14679c-0.79962,7.22455 -7.87869,12.16444 -13.16227,16.48676c-22.38897,17.62767 -22.38897,17.62768 -27.07933,17.15675c-10.89772,-4.26793 -20.36458,-13.09214 -29.36916,-20.4134c-0.77174,-0.62742 -1.54347,-1.25486 -2.33859,-1.9013c-8.38559,-6.83479 -16.68903,-13.7358 -24.80009,-20.89521c-0.61554,-0.53701 -1.23107,-1.07401 -1.86526,-1.62726c-12.29873,-10.76555 -24.56327,-22.95468 -26.83815,-39.94583c-0.57285,-15.74388 7.24572,-26.56361 17.48749,-37.73127c10.30842,-10.8998 21.20968,-19.33965 34.01241,-27.07933c0.91831,-0.5641 1.83662,-1.12823 2.78278,-1.70942c5.49459,-3.37524 11.02207,-6.68662 16.58958,-9.94009c2.0207,-1.18989 4.02198,-2.4127 6.01928,-3.64145c5.9749,-3.5549 11.05113,-6.09063 18.03026,-4.24889z" fill="url(#color-1)" stroke-width="1"/><path d="M331.50419,95.68023c8.1068,5.06134 12.94087,13.33358 17.91154,21.23604c0.79633,1.21827 1.59353,2.43598 2.3916,3.65311c0.74444,1.16914 1.4889,2.33829 2.2559,3.54286c0.67238,1.05448 1.34477,2.10898 2.03752,3.19543c1.65262,3.52863 1.86272,5.77143 1.45659,9.62337c-2.29993,3.92904 -5.04591,5.98112 -8.854,8.30698c-0.78152,0.47989 -1.56306,0.95977 -2.36827,1.4542c-0.89312,0.54167 -0.89313,0.54167 -1.80431,1.09429c1.30846,0.01014 2.61695,0.02029 3.96507,0.03075c4.87813,0.04344 9.75551,0.11487 14.63316,0.19453c2.10669,0.03054 4.2135,0.05362 6.32035,0.0689c3.03757,0.02337 6.07368,0.07407 9.11081,0.12987c0.93433,0.00133 1.86866,0.00266 2.83129,0.00403c6.31005,0.15168 10.03828,1.39246 15.24561,4.99965c4.344,5.09651 6.78439,11.96349 6.80165,18.59848c0.0028,1.0551 0.0056,2.11021 0.00848,3.19728c-0.00839,1.09148 -0.01679,2.18297 -0.02544,3.30753c0.00839,1.0663 0.01679,2.13258 0.02544,3.23119c-0.0085,3.2304 -0.12465,6.43404 -0.29683,9.65968c-0.03988,1.08133 -0.07977,2.16269 -0.12085,3.27679c-0.31058,3.23713 -0.78921,5.66675 -2.05024,8.66424c-6.78606,5.42463 -14.45651,6.22979 -22.83889,6.19524c-1.09301,0.01642 -2.18601,0.03283 -3.31213,0.04975c-3.45042,0.04622 -6.89982,0.05611 -10.35051,0.06475c-2.35629,0.02515 -4.71254,0.05269 -7.06878,0.08269c-5.74013,0.06792 -11.47986,0.10609 -17.22035,0.12085c0.88683,0.57652 1.77367,1.15305 2.68738,1.74705c1.1674,0.76684 2.3348,1.53368 3.53758,2.32377c1.1555,0.75564 2.31102,1.51128 3.50154,2.28982c5.96951,4.20339 10.03276,8.07274 12.12019,15.14679c-0.79962,7.22455 -7.87869,12.16444 -13.16227,16.48676c-22.38897,17.62767 -22.38897,17.62768 -27.07933,17.15675c-10.89772,-4.26793 -20.36458,-13.09214 -29.36916,-20.4134c-0.77174,-0.62742 -1.54347,-1.25486 -2.33859,-1.9013c-8.38559,-6.83479 -16.68903,-13.7358 -24.80009,-20.89521c-0.61554,-0.53701 -1.23107,-1.07401 -1.86526,-1.62726c-12.29873,-10.76555 -24.56327,-22.95468 -26.83815,-39.94583c-0.57285,-15.74388 7.24572,-26.56361 17.48749,-37.73127c10.30842,-10.8998 21.20968,-19.33965 34.01241,-27.07933c0.91831,-0.5641 1.83662,-1.12823 2.78278,-1.70942c5.49459,-3.37524 11.02207,-6.68662 16.58958,-9.94009c2.0207,-1.18989 4.02198,-2.4127 6.01928,-3.64145c5.9749,-3.5549 11.05112,-6.09063 18.03027,-4.24889zM316.8493,108.16402c-1.0146,0.5948 -1.0146,0.59481 -2.04971,1.20163c-6.54197,3.87517 -12.86775,8.04042 -19.11847,12.36772c-0.80969,0.55763 -1.6194,1.11527 -2.45361,1.6898c-28.28321,17.0191 -28.28321,17.0191 -46.39604,42.81766c-1.31712,14.40388 1.36607,26.08534 10.44841,37.4514c3.68166,4.08347 7.93458,7.42309 12.22513,10.84276c3.67713,2.93724 7.22096,6.0201 10.7749,9.10419c6.84337,5.90103 13.8353,11.57491 21.01076,17.06716c1.38168,1.05771 2.75993,2.11992 4.13547,3.18561c2.16922,1.67591 4.35147,3.33324 6.5382,4.9862c0.66321,0.51435 1.32639,1.02869 2.00969,1.55862c3.97388,2.96195 7.06817,5.06247 12.10242,4.81897c2.81068,-1.60298 5.05015,-3.68943 7.3953,-5.90267c0.65927,-0.59437 1.31853,-1.18874 1.99777,-1.80112c1.32553,-1.19734 2.64406,-2.40246 3.95524,-3.61549c2.5242,-2.33029 5.10472,-4.59486 7.68417,-6.86365c1.31302,-1.17454 2.6253,-2.34991 3.93511,-3.52804c-1.63024,-3.93385 -3.87775,-6.15966 -7.05606,-8.95577c-0.96554,-0.85081 -1.9311,-1.70159 -2.92588,-2.57817c-3.74409,-3.17048 -7.58142,-6.20238 -11.48307,-9.17626c-2.70214,-2.33238 -4.78248,-4.53535 -6.75923,-7.51402c0,-1.79115 0,-3.58231 0,-5.42773c22.56854,0 45.13707,0 68.38951,0c2.77443,-13.87213 5.00262,-27.68463 -3.25663,-40.16526c-3.93264,-2.8384 -6.70502,-3.6706 -11.52468,-3.72599c-1.19492,-0.02149 -2.38986,-0.04299 -3.621,-0.06512c-1.27797,-0.00694 -2.55592,-0.01388 -3.87262,-0.02102c-1.31754,-0.01948 -2.63509,-0.03897 -3.99253,-0.05906c-4.20286,-0.05876 -8.40558,-0.09555 -12.60872,-0.13177c-2.8517,-0.036 -5.70338,-0.07345 -8.55505,-0.11238c-6.98597,-0.09223 -13.97196,-0.16643 -20.95828,-0.22686c0.99988,-5.92674 2.87818,-7.38277 7.637,-10.87667c6.3412,-4.23582 12.90987,-8.0898 19.50169,-11.91983c-3.88647,-6.19869 -8.17191,-12.02732 -12.68734,-17.77585c-0.51609,-0.65856 -1.03218,-1.31712 -1.56391,-1.99564c-3.44042,-4.50562 -3.44043,-4.50562 -7.4597,-8.45275c-4.85932,0 -7.37994,1.4012 -11.39825,3.79942z" fill="#410202" stroke-width="1"/><path d="M326.88639,104.42822c2.71944,1.13585 3.90474,2.08177 5.77122,4.34644c0.6297,0.76264 1.2594,1.52529 1.90819,2.31104c5.22639,6.73437 10.33023,13.55948 15.39273,20.41763c-0.35824,0.71647 -0.71646,1.43292 -1.08554,2.1711c-0.71646,0 -1.43292,0 -2.1711,0c-1.33891,-1.47383 -1.33892,-1.47381 -2.8326,-3.53227c-0.55135,-0.74934 -1.10268,-1.4987 -1.67072,-2.27075c-0.86059,-1.19119 -0.86058,-1.19119 -1.73856,-2.40645c-4.22425,-5.80038 -8.56243,-11.36332 -13.29796,-16.75814c-12.72154,1.74656 -25.23824,12.72776 -35.53474,19.98298c-2.71151,1.90506 -5.43431,3.79326 -8.15857,5.68004c-1.94516,1.35097 -3.89009,2.70225 -5.83482,4.05386c-0.91324,0.63269 -1.8265,1.26535 -2.76741,1.91719c-9.55383,6.54391 -9.55383,6.5439 -17.38307,14.97664c-0.50796,0.68148 -1.01592,1.36296 -1.53927,2.06508c-5.89198,9.12678 -5.82213,17.62524 -4.33794,28.23273c3.24568,13.29886 14.63058,21.67117 24.69196,29.96865c2.64755,2.20515 5.24108,4.46936 7.83817,6.73353c7.21638,6.27342 14.64865,12.13494 22.40028,17.74059c1.24022,0.93634 2.4798,1.87352 3.71884,2.81139c1.24718,0.91858 2.49525,1.83595 3.7443,2.75204c1.11668,0.8312 2.23333,1.66242 3.38386,2.51881c3.1423,1.93454 3.1423,1.93454 6.57266,1.72161c3.94443,-1.37742 6.04762,-3.23494 9.04059,-6.14013c1.02711,-0.97253 2.05422,-1.94509 3.11247,-2.94708c0.98793,-0.95295 1.97587,-1.9059 2.99374,-2.88774c1.6159,-1.52848 3.24256,-3.04575 4.88496,-4.54572c0.99073,-0.92985 0.99073,-0.92985 2.00148,-1.87851c0.59332,-0.38762 1.18663,-0.77523 1.79794,-1.17459c1.61204,0.53734 1.61203,0.53734 3.25663,1.08554c-1.9172,4.37271 -4.47387,6.58634 -8.08648,9.60456c-2.13419,1.80082 -4.19611,3.63255 -6.25037,5.52103c-1.23648,1.10992 -2.47328,2.2195 -3.71038,3.32874c-0.58397,0.54862 -1.16792,1.09727 -1.76959,1.6625c-2.7966,2.463 -4.5591,3.73442 -8.32686,3.93061c-4.4883,-1.6824 -7.81171,-4.19162 -11.54666,-7.15359c-0.7587,-0.58685 -1.5174,-1.1737 -2.29911,-1.77832c-1.55186,-1.20134 -3.10007,-2.40738 -4.64457,-3.61813c-2.00605,-1.56404 -4.0288,-3.10043 -6.06592,-4.62365c-6.74872,-5.06277 -13.09002,-10.41135 -19.27272,-16.15177c-5.36346,-4.87445 -10.98078,-9.54292 -16.80054,-13.86618c-7.4188,-5.62806 -13.1088,-14.30327 -15.00685,-23.41136c-1.36456,-10.66229 -1.76122,-19.59602 4.99521,-28.3472c0.61012,-0.82841 1.22023,-1.65681 1.84883,-2.51033c7.59393,-9.32799 17.64515,-15.69061 27.46097,-22.45727c1.50622,-1.05604 3.0116,-2.11327 4.51606,-3.17183c9.22311,-6.45527 18.62349,-12.62578 28.26718,-18.43681c1.33262,-0.80999 2.65077,-1.64411 3.95524,-2.49868c2.98301,-1.87998 5.00578,-3.044 8.5789,-2.96777z" fill="#eaecec" stroke-width="1"/><path d="M379.26829,157.55646c3.46019,-0.1357 3.46019,-0.13569 7.59884,1.08555c8.17437,11.58897 7.62639,25.61297 5.42773,39.07971c-2.68673,0.53734 -2.68673,0.53735 -5.42773,1.08555c0.17211,-1.24402 0.34424,-2.48802 0.52157,-3.76974c1.35868,-10.96829 2.80703,-23.61697 -3.77821,-33.13889c-2.23608,-2.698 -2.23608,-2.698 -4.34219,-4.34219z" fill="#e9e9e9" stroke-width="1"/><path d="M266.37132,144.52987c-1.6945,4.15924 -4.24895,6.81886 -7.59883,9.76993c-2.51033,0.88201 -2.51033,0.88201 -4.34219,1.08555c1.48624,-3.41835 3.12117,-5.47968 5.97051,-7.87022c0.66049,-0.56533 1.32097,-1.13067 2.00148,-1.71313c1.79793,-1.27212 1.79794,-1.27212 3.96904,-1.27212z" fill="#e3e5e6" stroke-width="1"/><path d="M321.73426,108.7068c-2.91841,2.44516 -5.04391,4.21425 -8.68439,5.42773c-0.35824,-1.0747 -0.71646,-2.14938 -1.08554,-3.25663c6.10622,-3.39233 6.10622,-3.39233 9.76993,-2.1711z" fill="#e5e7e8" stroke-width="1"/><path d="M247.91701,185.78068c1.43292,0.35824 2.86585,0.71646 4.34219,1.08554c0.35824,1.79115 0.71646,3.58231 1.08554,5.42773c-1.0747,0.35824 -2.14939,0.71647 -3.25664,1.08555c-0.71646,-2.50762 -1.43292,-5.01523 -2.1711,-7.59884z" fill="#e0e2e3" stroke-width="1"/><path d="M247.91701,174.92523c2.49278,3.73918 2.75746,6.4461 3.25663,10.85548c-1.0747,0 -2.14938,0 -3.25663,0c0,-3.58231 0,-7.16461 0,-10.85548z" fill="#f7f9f9" stroke-width="1"/><path d="M185.60237,314.39761v-268.79525h268.79526v268.79527z" fill="none" stroke-width="0"/><path d="M332.85315,85.79311c9.05739,5.65481 14.45828,14.89704 20.01179,23.72611c0.8897,1.36113 1.78037,2.72163 2.67204,4.08146c0.83173,1.30624 1.66348,2.61248 2.52043,3.9583c0.75122,1.17815 1.50245,2.35627 2.27643,3.5701c1.84638,3.94239 2.08114,6.44817 1.62738,10.75178c-2.56961,4.38975 -5.63758,6.68243 -9.8922,9.28104c-0.87316,0.53617 -1.74635,1.07232 -2.64598,1.62472c-0.99785,0.6052 -0.99785,0.6052 -2.01587,1.22261c1.46188,0.01134 2.92381,0.02267 4.43,0.03435c5.45013,0.04853 10.89943,0.12834 16.34901,0.21734c2.35372,0.03412 4.70755,0.0599 7.06146,0.07699c3.39374,0.02611 6.78587,0.08275 10.17912,0.14509c1.0439,0.00149 2.08777,0.00298 3.16328,0.00451c7.04994,0.16947 11.21535,1.55572 17.03328,5.5859c4.85338,5.69411 7.57991,13.3663 7.59919,20.7793c0.00313,1.17882 0.00626,2.35764 0.00947,3.57218c-0.00937,1.21947 -0.01876,2.43895 -0.02843,3.69537c0.00937,1.19133 0.01876,2.38266 0.02843,3.61007c-0.00949,3.60918 -0.13927,7.18846 -0.33164,10.79234c-0.04456,1.20813 -0.08911,2.41627 -0.13502,3.661c-0.34699,3.61671 -0.88174,6.33122 -2.29065,9.68019c-7.58179,6.06071 -16.15164,6.96028 -25.51693,6.92169c-1.22116,0.01834 -2.44234,0.03668 -3.70051,0.05556c-3.85501,0.05164 -7.70886,0.06269 -11.56418,0.07235c-2.63259,0.0281 -5.26514,0.05887 -7.89766,0.09238c-6.4132,0.07587 -12.82596,0.11854 -19.23956,0.13503c0.99082,0.64413 1.98166,1.28827 3.00249,1.95192c1.30429,0.85676 2.60856,1.7135 3.95237,2.59624c1.29099,0.84425 2.582,1.68849 3.91211,2.55832c6.66949,4.69627 11.20918,9.01934 13.54137,16.92288c-0.89337,8.07169 -8.80252,13.5908 -14.70563,18.41995c-25.01423,19.69464 -25.01424,19.69464 -30.25459,19.1685c-12.17555,-4.76837 -22.75247,-14.62728 -32.8129,-22.807c-0.86223,-0.70099 -1.72446,-1.40201 -2.61282,-2.12423c-9.36885,-7.63624 -18.64594,-15.34643 -27.70809,-23.34533c-0.68772,-0.59997 -1.37541,-1.19993 -2.08397,-1.81807c-13.74086,-12.02789 -27.44351,-25.64628 -29.98512,-44.62978c-0.64001,-17.58996 8.09534,-29.6784 19.53804,-42.15554c11.51715,-12.17786 23.69667,-21.60738 38.00062,-30.25458c1.026,-0.63026 2.05198,-1.2605 3.10908,-1.90986c6.13887,-3.77102 12.3145,-7.47066 18.53484,-11.10563c2.25765,-1.32941 4.49358,-2.69562 6.72508,-4.06845c6.6755,-3.97173 12.34695,-6.8048 20.14446,-4.74711zM316.47985,99.74073c-1.13358,0.66456 -1.13358,0.66456 -2.29005,1.34253c-7.30907,4.32957 -14.37659,8.98322 -21.36027,13.81793c-0.90463,0.62302 -1.80928,1.24604 -2.74131,1.88795c-31.59963,19.01472 -31.59962,19.01472 -51.83632,47.83834c-1.47156,16.09284 1.52625,29.14406 11.67355,41.84285c4.11336,4.56227 8.86497,8.29352 13.65863,12.11415c4.1083,3.28166 8.06767,6.72599 12.03835,10.17172c7.6458,6.59298 15.45759,12.93216 23.47442,19.06843c1.5437,1.18174 3.08356,2.36848 4.62038,3.55916c2.42357,1.87241 4.8617,3.7241 7.30485,5.57087c0.74097,0.57466 1.48193,1.1493 2.24535,1.74138c4.43986,3.30927 7.89695,5.65607 13.52152,5.38403c3.14025,-1.79095 5.64233,-4.12205 8.26246,-6.5948c0.73656,-0.66406 1.47313,-1.32812 2.23201,-2.01232c1.48095,-1.33775 2.95411,-2.68416 4.41904,-4.03944c2.82017,-2.60355 5.70329,-5.13367 8.5852,-7.66846c1.46697,-1.31227 2.93315,-2.62545 4.39654,-3.94172c-1.8214,-4.39513 -4.33245,-6.88192 -7.88344,-10.0059c-1.07876,-0.95057 -2.15752,-1.90112 -3.26896,-2.88049c-4.18311,-3.54225 -8.47039,-6.92967 -12.82954,-10.25226c-3.019,-2.60586 -5.34326,-5.06715 -7.5518,-8.3951c0,-2.00118 0,-4.00236 0,-6.06418c25.21486,0 50.42974,0 76.4087,0c3.09974,-15.49874 5.5892,-30.93086 -3.63851,-44.87494c-4.39378,-3.17122 -7.49123,-4.10102 -12.87603,-4.1629c-1.33504,-0.024 -2.67009,-0.04802 -4.0456,-0.07275c-1.42782,-0.00776 -2.85563,-0.0155 -4.32672,-0.02347c-1.47203,-0.02177 -2.94406,-0.04353 -4.46068,-0.06597c-4.69567,-0.06565 -9.3912,-0.10674 -14.08718,-0.14722c-3.18608,-0.04023 -6.37214,-0.08207 -9.5582,-0.12555c-7.80513,-0.10304 -15.61029,-0.18593 -23.41579,-0.25346c1.11712,-6.62168 3.21567,-8.24845 8.53249,-12.15205c7.08475,-4.7325 14.42365,-9.03838 21.78841,-13.31751c-4.3422,-6.92552 -9.13014,-13.43761 -14.17503,-19.8602c-0.5766,-0.73579 -1.15322,-1.47158 -1.7473,-2.22965c-3.84385,-5.03394 -3.84385,-5.03393 -8.3344,-9.44389c-5.4291,0 -8.24529,1.56549 -12.73478,4.24493z" fill="url(#color-2)" stroke-width="1"/></g></g></svg>