<svg version="1.1" xmlns="http://www.w3.org/2000/svg" xmlns:xlink="http://www.w3.org/1999/xlink" width="247.61255" height="247.61256" viewBox="0,0,247.61255,247.61256"><g transform="translate(-196.19375,-56.19374)"><g stroke-miterlimit="10"><path d="M329.55982,101.75933c7.24818,4.51302 11.25641,12.02062 15.75244,19.07813c1.18518,1.82578 2.41121,3.61183 3.66553,5.39063c1.09248,1.56234 1.09248,1.56234 2.20703,3.15625c0.9784,1.38059 0.9784,1.38059 1.97656,2.78906c1.55167,2.86929 1.85672,4.37798 1.39844,7.58594c-2.62937,3.94406 -5.14824,6.23746 -9.1875,8.6875c-0.71543,0.43699 -1.43086,0.87398 -2.16797,1.32422c-0.81404,0.4892 -0.81404,0.4892 -1.64453,0.98828c1.20012,-0.02618 2.40023,-0.05237 3.63672,-0.07935c4.48011,-0.09094 8.96015,-0.14806 13.44092,-0.19531c1.93406,-0.02504 3.86802,-0.05909 5.80176,-0.10254c2.79044,-0.0611 5.57962,-0.08911 8.37061,-0.11108c1.2833,-0.03871 1.2833,-0.03871 2.59253,-0.0782c6.16742,-0.00284 10.44667,1.50772 15.15747,5.56648c5.21006,6.63197 6.34706,13.91817 6.25,22.0625c-0.01341,1.25212 -0.01341,1.25212 -0.0271,2.52954c-0.34142,18.4101 -0.34142,18.4101 -3.73853,22.01733c-1.79687,1.07813 -1.79687,1.07813 -5.48437,2.39063c-0.7089,0.35232 -1.41781,0.70463 -2.14819,1.06763c-4.07168,1.3312 -7.91175,1.19847 -12.16821,1.16284c-1.34021,-0.00069 -1.34021,-0.00069 -2.7075,-0.00139c-1.88356,-0.00301 -3.76712,-0.01087 -5.65065,-0.02327c-2.88136,-0.01827 -5.76239,-0.02051 -8.6438,-0.02026c-1.83269,-0.00492 -3.66537,-0.01074 -5.49805,-0.01758c-0.86049,-0.00111 -1.72099,-0.00223 -2.60756,-0.00337c-1.20662,-0.00957 -1.20662,-0.00957 -2.43761,-0.01933c-0.7044,-0.00381 -1.40879,-0.00762 -2.13454,-0.01155c-2.10225,-0.14028 -3.97949,-0.56299 -6.00389,-1.13371c0,0.66 0,1.32 0,2c0.69867,0.24105 1.39734,0.48211 2.11719,0.73047c3.37641,1.4869 6.05099,3.37738 9.00781,5.58203c1.03383,0.75926 2.06766,1.51852 3.13281,2.30078c3.69304,3.21431 5.41904,5.85913 6.42969,10.63672c-1.79208,9.77497 -12.32444,15.95152 -19.95117,21.47852c-1.77255,1.29801 -3.51199,2.63335 -5.25195,3.97461c-1.13948,0.85049 -2.28007,1.6995 -3.42187,2.54688c-1.01965,0.76828 -2.0393,1.53656 -3.08984,2.32813c-2.97266,1.42188 -2.97266,1.42188 -5.95312,0.92578c-3.35953,-1.67324 -6.38357,-3.59443 -9.39453,-5.81641c-0.59941,-0.43514 -1.19883,-0.87028 -1.81641,-1.3186c-6.11652,-4.49517 -11.9792,-9.29731 -17.83594,-14.1228c-3.19777,-2.62973 -6.44484,-5.18596 -9.72021,-7.71802c-4.82993,-3.73387 -9.47897,-7.47655 -13.68213,-11.92261c-1.76569,-1.80522 -3.64278,-3.41226 -5.57031,-5.04297c-8.76859,-7.6175 -18.23668,-18.21924 -19.33594,-30.23437c-0.17446,-7.85188 0.06201,-14.51115 4.33594,-21.32812c0.4241,-0.72188 0.8482,-1.44375 1.28516,-2.1875c3.8753,-6.21775 8.69762,-11.50218 13.71484,-16.8125c0.62648,-0.69094 1.25297,-1.38187 1.89844,-2.09375c5.6372,-5.99398 12.23919,-10.45113 19.10156,-14.90625c0.72187,-0.46986 1.44375,-0.93973 2.1875,-1.42383c10.71081,-6.93851 21.58531,-13.50669 32.8125,-19.57617c0.73734,-0.39961 1.47469,-0.79922 2.23438,-1.21094c3.12831,-1.39805 5.39247,-1.24644 8.76563,-0.78906z" fill="#000000" stroke="none" stroke-width="1" stroke-linecap="butt"/><path d="M329.55982,101.75933c7.24818,4.51302 11.25641,12.02062 15.75244,19.07813c1.18518,1.82578 2.41121,3.61183 3.66553,5.39063c1.09248,1.56234 1.09248,1.56234 2.20703,3.15625c0.9784,1.38059 0.9784,1.38059 1.97656,2.78906c1.55167,2.86929 1.85672,4.37798 1.39844,7.58594c-2.62937,3.94406 -5.14824,6.23746 -9.1875,8.6875c-0.71543,0.43699 -1.43086,0.87398 -2.16797,1.32422c-0.81404,0.4892 -0.81404,0.4892 -1.64453,0.98828c1.20012,-0.02618 2.40023,-0.05237 3.63672,-0.07935c4.48011,-0.09094 8.96015,-0.14806 13.44092,-0.19531c1.93406,-0.02504 3.86802,-0.05909 5.80176,-0.10254c2.79044,-0.0611 5.57962,-0.08911 8.37061,-0.11108c1.2833,-0.03871 1.2833,-0.03871 2.59253,-0.0782c6.16742,-0.00284 10.44667,1.50772 15.15747,5.56648c5.21006,6.63197 6.34706,13.91817 6.25,22.0625c-0.01341,1.25212 -0.01341,1.25212 -0.0271,2.52954c-0.34142,18.4101 -0.34142,18.4101 -3.73853,22.01733c-1.79687,1.07813 -1.79687,1.07813 -5.48437,2.39063c-0.7089,0.35232 -1.41781,0.70463 -2.14819,1.06763c-4.07168,1.3312 -7.91175,1.19847 -12.16821,1.16284c-1.34021,-0.00069 -1.34021,-0.00069 -2.7075,-0.00139c-1.88356,-0.00301 -3.76712,-0.01087 -5.65065,-0.02327c-2.88136,-0.01827 -5.76239,-0.02051 -8.6438,-0.02026c-1.83269,-0.00492 -3.66537,-0.01074 -5.49805,-0.01758c-0.86049,-0.00111 -1.72099,-0.00223 -2.60756,-0.00337c-1.20662,-0.00957 -1.20662,-0.00957 -2.43761,-0.01933c-0.7044,-0.00381 -1.40879,-0.00762 -2.13454,-0.01155c-2.10225,-0.14028 -3.97949,-0.56299 -6.00389,-1.13371c0,0.66 0,1.32 0,2c0.69867,0.24105 1.39734,0.48211 2.11719,0.73047c3.37641,1.4869 6.05099,3.37738 9.00781,5.58203c1.03383,0.75926 2.06766,1.51852 3.13281,2.30078c3.69304,3.21431 5.41904,5.85913 6.42969,10.63672c-1.79208,9.77497 -12.32444,15.95152 -19.95117,21.47852c-1.77255,1.29801 -3.51199,2.63335 -5.25195,3.97461c-1.13948,0.85049 -2.28007,1.6995 -3.42187,2.54688c-1.01965,0.76828 -2.0393,1.53656 -3.08984,2.32813c-2.97266,1.42188 -2.97266,1.42188 -5.95312,0.92578c-3.35953,-1.67324 -6.38357,-3.59443 -9.39453,-5.81641c-0.59941,-0.43514 -1.19883,-0.87028 -1.81641,-1.3186c-6.11652,-4.49517 -11.9792,-9.29731 -17.83594,-14.1228c-3.19777,-2.62973 -6.44484,-5.18596 -9.72021,-7.71802c-4.82993,-3.73387 -9.47897,-7.47655 -13.68213,-11.92261c-1.76569,-1.80522 -3.64278,-3.41226 -5.57031,-5.04297c-8.76859,-7.6175 -18.23668,-18.21924 -19.33594,-30.23437c-0.17446,-7.85188 0.06201,-14.51115 4.33594,-21.32812c0.4241,-0.72188 0.8482,-1.44375 1.28516,-2.1875c3.8753,-6.21775 8.69762,-11.50218 13.71484,-16.8125c0.62648,-0.69094 1.25297,-1.38187 1.89844,-2.09375c5.6372,-5.99398 12.23919,-10.45113 19.10156,-14.90625c0.72187,-0.46986 1.44375,-0.93973 2.1875,-1.42383c10.71081,-6.93851 21.58531,-13.50669 32.8125,-19.57617c0.73734,-0.39961 1.47469,-0.79922 2.23438,-1.21094c3.12831,-1.39805 5.39247,-1.24644 8.76563,-0.78906zM313.80982,118.00933c-0.74226,0.44602 -1.48452,0.89203 -2.24927,1.35156c-7.58154,4.62673 -14.80278,9.73286 -21.98706,14.94775c-1.93389,1.39321 -3.88327,2.76037 -5.8418,4.11865c-17.98602,12.2634 -17.98602,12.2634 -29.17187,30.33203c-1.00547,9.96327 -0.03322,19.20955 5.9375,27.4375c7.05957,8.4269 15.76594,15.46129 24.30078,22.32813c2.85283,2.30809 5.64981,4.67437 8.44922,7.04688c4.81286,4.01912 9.73849,7.85679 14.75,11.625c0.67442,0.50829 1.34884,1.01659 2.0437,1.54028c1.82571,1.36135 3.66631,2.69764 5.5188,4.02222c0.87785,0.63035 1.7557,1.2607 2.66016,1.91016c2.28521,1.27486 2.28521,1.27486 4.82422,1.03125c3.1557,-1.18094 5.20165,-2.81853 7.76563,-5.00391c0.95004,-0.80437 1.90008,-1.60875 2.87891,-2.4375c3.98483,-3.46978 7.95567,-6.95195 11.87109,-10.5c-0.56784,-3.29734 -1.42159,-4.74661 -3.98437,-6.875c-0.60586,-0.51047 -1.21172,-1.02094 -1.83594,-1.54687c-0.6368,-0.52078 -1.27359,-1.04156 -1.92969,-1.57812c-0.62133,-0.52078 -1.24266,-1.04156 -1.88281,-1.57812c-2.69333,-2.25012 -5.40914,-4.4545 -8.17969,-6.60937c-3.88769,-3.22123 -6.13266,-6.91805 -7.1875,-11.8125c1.18328,0.03029 2.36656,0.06059 3.58569,0.0918c4.47488,0.11398 8.94983,0.2251 13.4248,0.33545c1.92092,0.04775 3.84182,0.09622 5.7627,0.14551c9.57583,0.24521 19.15154,0.47389 28.73071,0.521c1.30912,0.00709 2.61825,0.01418 3.96704,0.02148c3.27422,-0.10691 6.31801,-0.48845 9.52905,-1.11523c1.43034,-4.98522 1.30326,-9.9728 1.375,-15.125c0.05607,-1.49273 0.05607,-1.49273 0.11328,-3.01562c0.08518,-7.24988 -1.29012,-12.8524 -5.48828,-18.85937c-3.40205,-2.26803 -4.66576,-2.2668 -8.66479,-2.31885c-1.16098,-0.01987 -2.32195,-0.03974 -3.51811,-0.06021c-1.2532,-0.01155 -2.50639,-0.0231 -3.79756,-0.035c-1.92469,-0.02905 -1.92469,-0.02905 -3.88826,-0.05869c-3.40788,-0.05133 -6.8158,-0.09095 -10.22386,-0.12814c-3.479,-0.04004 -6.95784,-0.09113 -10.43671,-0.1413c-6.82345,-0.09676 -13.647,-0.18117 -20.4707,-0.25781c3.69831,-9.90022 15.27873,-14.81037 24,-20c-1.68617,-3.85008 -4.17889,-7.02401 -6.75,-10.3125c-0.44884,-0.57452 -0.89767,-1.14904 -1.36011,-1.74097c-0.89081,-1.1361 -1.78358,-2.27067 -2.67847,-3.40356c-1.02436,-1.30471 -2.02844,-2.62529 -3.02783,-3.94922c-2.56845,-3.42305 -2.56845,-3.42305 -6.36719,-5.02734c-4.09198,0.62997 -7.06717,2.54034 -10.56641,4.68359z" fill="#ff9900" stroke="none" stroke-width="1" stroke-linecap="butt"/><path d="M326.62622,110.24761c2.62311,2.05079 4.57694,4.36957 6.68359,6.94922c0.43103,0.52771 0.86206,1.05542 1.30615,1.59912c11.94385,14.75727 11.94385,14.75727 11.94385,17.96338c-4.5041,-1.56849 -6.68298,-5.08235 -9.4375,-8.75c-1.39689,-1.82893 -2.7958,-3.65546 -4.21045,-5.4707c-0.89264,-1.17471 -1.74997,-2.37722 -2.56738,-3.60547c-1.29131,-1.93905 -1.29131,-1.93905 -3.78467,-4.17383c-6.0263,-0.31454 -10.40866,2.61988 -15.3125,5.75c-0.77763,0.4859 -1.55525,0.97179 -2.35645,1.47241c-7.99339,5.06617 -15.62024,10.61707 -23.22656,16.24048c-2.00323,1.46315 -4.02638,2.89006 -6.06543,4.30273c-9.9783,6.91688 -20.04268,14.24522 -24.03906,26.23438c-0.8364,11.46838 0.34805,20.75566 7.85938,29.71875c6.53832,6.96784 13.9178,13.02271 21.34375,19.01172c2.86212,2.32247 5.67227,4.69934 8.48438,7.08203c4.81286,4.01912 9.73849,7.85679 14.75,11.625c0.67442,0.50829 1.34884,1.01659 2.0437,1.54028c1.82571,1.36135 3.66631,2.69764 5.5188,4.02222c0.87785,0.63035 1.7557,1.2607 2.66016,1.91016c2.28459,1.27392 2.28459,1.27392 4.82031,1.03516c3.18076,-1.1934 5.24935,-2.86513 7.83203,-5.07031c0.95262,-0.80824 1.90523,-1.61648 2.88672,-2.44922c1.38639,-1.20076 1.38639,-1.20076 2.80078,-2.42578c1.21623,-1.03061 1.21623,-1.03061 2.45703,-2.08203c3.78802,-3.03834 3.78802,-3.03834 6.54297,-6.91797c1.485,0.495 1.485,0.495 3,1c-4.28669,9.66104 -15.4484,17.29893 -24,23c-4.13743,-0.28659 -6.54291,-1.84029 -9.76562,-4.35156c-0.89074,-0.68707 -1.78148,-1.37414 -2.69922,-2.08203c-0.9191,-0.72316 -1.8382,-1.44633 -2.78516,-2.19141c-0.90363,-0.69996 -1.80727,-1.39992 -2.73828,-2.12109c-1.80676,-1.40121 -3.61001,-2.80697 -5.40967,-4.21729c-1.66833,-1.3058 -3.34143,-2.60552 -5.02051,-3.89746c-4.79444,-3.68952 -9.41942,-7.51355 -13.95654,-11.51416c-4.45851,-3.91353 -8.95899,-7.7116 -13.625,-11.375c-8.02645,-6.54758 -15.00159,-14.67179 -16.23926,-25.30566c-0.71061,-9.20618 -0.88616,-17.50308 5.23926,-24.94434c0.75797,-0.96422 1.51594,-1.92844 2.29688,-2.92187c2.60611,-3.09739 5.55905,-5.62221 8.76563,-8.07813c0.59434,-0.46076 1.18868,-0.92152 1.80103,-1.39624c8.4926,-6.50485 17.31689,-12.55471 26.13647,-18.60376c0.70898,-0.48952 1.41797,-0.97904 2.14844,-1.4834c6.53169,-4.50165 13.13506,-8.85319 20.03906,-12.7666c1.0248,-0.58266 2.04961,-1.16531 3.10547,-1.76562c2.70703,-0.98437 2.70703,-0.98437 4.77344,-0.49609z" fill="#ffffff" stroke="none" stroke-width="1" stroke-linecap="butt"/><path d="M370.55982,158.75932c7.17127,-0.60773 7.17127,-0.60773 10.8125,2.0625c5.30707,7.12663 5.61267,12.95937 5.4375,21.625c-0.00516,1.03189 -0.01031,2.06379 -0.01562,3.12695c-0.08548,8.23291 -0.08548,8.23291 -1.23437,12.18555c-4.56868,0.89248 -8.8755,1.11886 -13.52734,1.09375c-1.09489,-0.00538 -1.09489,-0.00538 -2.2119,-0.01086c-9.60994,-0.06795 -19.2168,-0.32993 -28.82326,-0.58289c-1.89778,-0.04837 -3.79557,-0.09655 -5.69336,-0.14453c-4.58144,-0.11624 -9.16281,-0.2351 -13.74414,-0.35547c0.33,-0.66 0.66,-1.32 1,-2c19.70003,-0.1363 39.31569,0.17341 59,1c2.44867,-17.14345 2.44867,-17.14345 -3,-33c-2.49037,-2.8679 -4.22186,-3.48944 -8,-4c0,-0.33 0,-0.66 0,-1z" fill="#ffffff" stroke="none" stroke-width="1" stroke-linecap="butt"/><path d="M278.55982,139.75932c0.99,0.33 1.98,0.66 3,1c-0.85723,0.64066 -1.71445,1.28133 -2.59766,1.94141c-14.49729,10.7202 -14.49729,10.7202 -23.40234,26.05859c-0.62785,8.50014 0.28576,15.93806 3,24c-0.99,0 -1.98,0 -3,0c-2.48779,-5.82911 -3.55192,-10.61233 -3.5,-16.9375c0.00427,-0.79052 0.00854,-1.58104 0.01294,-2.39551c0.18302,-6.26799 1.44707,-10.75915 5.48706,-15.66699c0.73477,-0.94746 1.46953,-1.89492 2.22656,-2.87109c2.93173,-3.49357 6.34548,-6.18731 9.96094,-8.94141c0.62842,-0.4892 1.25684,-0.9784 1.9043,-1.48242c4.57794,-3.53995 4.57794,-3.53995 6.9082,-4.70508z" fill="#ffffff" stroke="none" stroke-width="1" stroke-linecap="butt"/><path d="M255.55982,163.75932c0.33,0.66 0.66,1.32 1,2c-0.33,0.99 -0.66,1.98 -1,3c-0.62785,8.50014 0.28576,15.93806 3,24c-0.99,0 -1.98,0 -3,0c-2.58855,-5.99201 -3.47193,-10.81247 -3.375,-17.3125c-0.0116,-0.79729 -0.0232,-1.59457 -0.03516,-2.41602c0.02945,-5.83537 0.02945,-5.83537 1.93506,-8.01831c0.48678,-0.41355 0.97356,-0.82709 1.4751,-1.25317z" fill="#ffffff" stroke="none" stroke-width="1" stroke-linecap="butt"/><path d="M196.19376,303.80629v-247.61255h247.61255v247.61256z" fill="none" stroke="none" stroke-width="0" stroke-linecap="butt"/><path d="M267.2089,165.13207l11.25148,4.73746l0.78958,5.13226c0,0 6.67609,0.88141 16.09266,1.39099c2.20405,0.11927 -3.7405,1.81409 6.69293,1.55737c4.45135,0.028 2.53856,-1.22655 3.67233,-1.20963c13.94725,0.20809 30.06071,-0.38123 38.64377,-0.75674c11.8012,-0.5163 29.64761,-5.12727 29.64761,-5.12727c0,0 2.51153,2.29718 3.27612,3.42745c0.74842,1.10636 1.26396,3.28396 1.26396,3.28396c0,0 -1.24104,1.76122 -1.90099,2.35831c-0.71706,0.64878 -2.24429,1.39219 -2.24429,1.39219c0,0 1.31217,2.47754 2.05478,3.42808c0.87918,1.12535 2.88008,2.88854 2.88008,2.88854c0,0 -1.40959,3.70235 -2.08318,4.51066c-0.9031,1.08372 -2.85168,1.41117 -2.85168,1.41117c0,0 -4.93136,-3.14227 -7.07726,-4.35935c-2.25696,-1.28007 -6.14817,-3.14163 -6.14817,-3.14163l-84.64347,1.14659c0,0 -1.21931,4.29914 -3.57565,6.19457c-2.39256,1.92457 -5.93264,1.44514 -7.26752,1.34467c-2.63506,-0.19833 -5.0109,-8.73255 -5.0109,-8.73255l6.478,-5.28469c0,0 0.07105,-1.3563 -1.07081,-2.64722c-0.9234,-1.04395 -3.05292,-1.92715 -3.41876,-2.94026c-0.52901,-1.46495 0.05725,-6.68664 0.05725,-6.68664z" fill="#ffffff" stroke="#000000" stroke-width="2" stroke-linecap="butt"/><path d="M276.09379,170.48768c0,0 -2.50715,0.36108 -4.67016,0.49782c-1.44306,0.09123 -2.54856,-0.0491 -3.33175,0.02083c-0.62637,0.05593 -1.5699,1.43152 -2.21032,1.22901c-1.0849,-0.34305 -1.74378,-2.37465 -1.74378,-2.37465" fill="none" stroke="#000000" stroke-width="2" stroke-linecap="round"/><path d="M265.65728,184.79719c0,0 1.20808,1.69513 2.56315,1.6168c0.98029,-0.05667 5.56626,-2.92722 5.6098,-2.93304c0.48274,-0.06461 3.83578,-0.01219 7.70945,-0.39139c0.93291,-0.09133 2.50027,-1.1838 3.36843,-1.1837c1.22755,0.00014 2.54687,0.0211 3.48903,0.72746c1.28048,0.96001 1.98967,2.68445 1.98967,2.68445" fill="none" stroke="#000000" stroke-width="2" stroke-linecap="round"/><path d="M337.61937,183.90187c0,0 -1.48697,-2.02101 -5.14484,-2.04146c-2.75157,-0.01539 -7.60176,1.99952 -9.12656,1.85702c-1.29314,-0.12086 -8.98241,-2.76895 -8.98241,-2.76895" fill="none" stroke="#000000" stroke-width="2" stroke-linecap="round"/><path d="M369.60329,177.435c0,0 -6.20322,2.27516 -12.26801,2.59744c-1.18683,0.06308 -4.03993,-2.43299 -5.05853,-2.33096c-1.27978,0.12819 -2.92337,2.04523 -3.64573,2.06364c-2.04018,0.052 -3.6184,-1.88833 -3.6184,-1.88833" fill="none" stroke="#000000" stroke-width="2" stroke-linecap="round"/><path d="M375.88236,190.65057c0,0 -3.18121,-0.57352 -4.58793,-1.18626c-1.44214,-0.62817 -3.96132,-2.53764 -3.96132,-2.53764" fill="none" stroke="#000000" stroke-width="2" stroke-linecap="round"/><path d="M309.23393,179.22827c0,0 -1.09149,-1.0711 -2.16822,-1.02652c-2.67781,0.11086 -7.25304,1.37728 -9.27574,1.13411c-2.19941,-0.26441 -3.98262,-1.94003 -3.98262,-1.94003" fill="none" stroke="#000000" stroke-width="2" stroke-linecap="round"/></g></g></svg>