<svg version="1.1" xmlns="http://www.w3.org/2000/svg" xmlns:xlink="http://www.w3.org/1999/xlink" width="296.37997" height="296.37998" viewBox="0,0,296.37997,296.37998"><defs><radialGradient cx="320.00003" cy="179.99996" r="93.6532" gradientUnits="userSpaceOnUse" id="color-1"><stop offset="0" stop-color="#ff6060"/><stop offset="1" stop-color="#ff0000"/></radialGradient><radialGradient cx="320.00003" cy="179.99996" r="85.47696" gradientUnits="userSpaceOnUse" id="color-2"><stop offset="0" stop-color="#ff0000"/><stop offset="1" stop-color="#ff0000" stop-opacity="0"/></radialGradient><radialGradient cx="320.00003" cy="179.99996" r="104.7782" gradientUnits="userSpaceOnUse" id="color-3"><stop offset="0" stop-color="#ad5353"/><stop offset="1" stop-color="#ad5353" stop-opacity="0"/></radialGradient></defs><g transform="translate(-171.81001,-31.81001)"><g stroke="none" stroke-miterlimit="10"><path d="M332.6848,87.02704c8.93875,5.58075 14.26891,14.70192 19.74968,23.41534c0.87805,1.3433 1.75705,2.68598 2.63704,4.02801c0.82084,1.28913 1.64169,2.57826 2.48742,3.90645c0.74138,1.16271 1.48277,2.32541 2.24662,3.52334c1.8222,3.89075 2.05388,6.36372 1.60607,10.61095c-2.53596,4.33225 -5.56374,6.59491 -9.76263,9.15947c-0.86173,0.52914 -1.72347,1.05827 -2.61132,1.60343c-0.98478,0.59727 -0.98478,0.59727 -1.98946,1.2066c1.44274,0.01119 2.8855,0.02237 4.37197,0.0339c5.37874,0.0479 10.75666,0.12666 16.13487,0.21449c2.32289,0.03368 4.6459,0.05912 6.96897,0.07598c3.34929,0.02577 6.69699,0.08167 10.04579,0.14319c1.03022,0.00147 2.06042,0.00294 3.12185,0.00445c6.9576,0.16725 11.06845,1.53535 16.81018,5.51274c4.7898,5.61953 7.48062,13.19122 7.49965,20.50713c0.00309,1.16338 0.00618,2.32676 0.00935,3.52539c-0.00925,1.2035 -0.01852,2.407 -0.02806,3.64696c0.00925,1.17573 0.01852,2.35145 0.02806,3.56279c-0.00937,3.56191 -0.13745,7.09431 -0.32729,10.65099c-0.04398,1.19231 -0.08795,2.38462 -0.13326,3.61305c-0.34245,3.56934 -0.87019,6.24829 -2.26064,9.5534c-7.48248,5.98133 -15.94009,6.86911 -25.18271,6.83103c-1.20517,0.0181 -2.41035,0.0362 -3.65204,0.05484c-3.80452,0.05097 -7.60789,0.06187 -11.41271,0.0714c-2.5981,0.02773 -5.19617,0.0581 -7.79421,0.09117c-6.3292,0.07488 -12.65796,0.11698 -18.98756,0.13326c0.97784,0.63569 1.95569,1.27139 2.96316,1.92635c1.2872,0.84554 2.5744,1.69106 3.90061,2.56223c1.27408,0.83319 2.54818,1.66638 3.86087,2.52482c6.58213,4.63476 11.06236,8.90119 13.364,16.70121c-0.88167,7.96596 -8.68723,13.41279 -14.51302,18.17869c-24.6866,19.43668 -24.6866,19.43668 -29.8583,18.91743c-12.01608,-4.70592 -22.45446,-14.43569 -32.38312,-22.50828c-0.85094,-0.69181 -1.70187,-1.38364 -2.57859,-2.09641c-9.24614,-7.53622 -18.40171,-15.14542 -27.34517,-23.03955c-0.67871,-0.59211 -1.3574,-1.18421 -2.05667,-1.79425c-13.56087,-11.87035 -27.08405,-25.31036 -29.59237,-44.04521c-0.63163,-17.35956 7.98931,-29.28967 19.28213,-41.60338c11.3663,-12.01836 23.38629,-21.32436 37.50289,-29.8583c1.01256,-0.622 2.02511,-1.244 3.06836,-1.88485c6.05846,-3.72162 12.1532,-7.37281 18.29207,-10.96016c2.22808,-1.312 4.43471,-2.66031 6.63699,-4.01516c6.58806,-3.91971 12.18523,-6.71567 19.88059,-4.68494z" fill="url(#color-1)" stroke-width="1"/><path d="M332.6848,87.02704c8.93875,5.58075 14.26891,14.70192 19.74968,23.41534c0.87805,1.3433 1.75705,2.68598 2.63704,4.02801c0.82084,1.28913 1.64169,2.57826 2.48742,3.90645c0.74138,1.16271 1.48277,2.32541 2.24662,3.52334c1.8222,3.89075 2.05388,6.36372 1.60607,10.61095c-2.53596,4.33225 -5.56374,6.59491 -9.76263,9.15947c-0.86173,0.52914 -1.72347,1.05827 -2.61132,1.60343c-0.98478,0.59727 -0.98478,0.59727 -1.98946,1.2066c1.44274,0.01119 2.8855,0.02237 4.37197,0.0339c5.37874,0.0479 10.75666,0.12666 16.13487,0.21449c2.32289,0.03368 4.6459,0.05912 6.96897,0.07598c3.34929,0.02577 6.69699,0.08167 10.04579,0.14319c1.03022,0.00147 2.06042,0.00294 3.12185,0.00445c6.9576,0.16725 11.06845,1.53535 16.81018,5.51274c4.7898,5.61953 7.48062,13.19122 7.49965,20.50713c0.00309,1.16338 0.00618,2.32676 0.00935,3.52539c-0.00925,1.2035 -0.01852,2.407 -0.02806,3.64696c0.00925,1.17573 0.01852,2.35145 0.02806,3.56279c-0.00937,3.56191 -0.13745,7.09431 -0.32729,10.65099c-0.04398,1.19231 -0.08795,2.38462 -0.13326,3.61305c-0.34245,3.56934 -0.87019,6.24829 -2.26064,9.5534c-7.48248,5.98133 -15.94009,6.86911 -25.18271,6.83103c-1.20517,0.0181 -2.41035,0.0362 -3.65204,0.05484c-3.80452,0.05097 -7.60789,0.06187 -11.41271,0.0714c-2.5981,0.02773 -5.19617,0.0581 -7.79421,0.09117c-6.3292,0.07488 -12.65796,0.11698 -18.98756,0.13326c0.97784,0.63569 1.95569,1.27139 2.96316,1.92635c1.2872,0.84554 2.5744,1.69106 3.90061,2.56223c1.27408,0.83319 2.54818,1.66638 3.86087,2.52482c6.58213,4.63476 11.06236,8.90119 13.364,16.70121c-0.88167,7.96596 -8.68723,13.41279 -14.51302,18.17869c-24.6866,19.43668 -24.6866,19.43668 -29.8583,18.91743c-12.01608,-4.70592 -22.45446,-14.43569 -32.38312,-22.50828c-0.85094,-0.69181 -1.70187,-1.38364 -2.57859,-2.09641c-9.24614,-7.53622 -18.40171,-15.14542 -27.34517,-23.03955c-0.67871,-0.59211 -1.3574,-1.18421 -2.05667,-1.79425c-13.56087,-11.87035 -27.08405,-25.31036 -29.59237,-44.04521c-0.63163,-17.35956 7.98931,-29.28967 19.28213,-41.60338c11.3663,-12.01836 23.38629,-21.32436 37.50289,-29.8583c1.01256,-0.622 2.02511,-1.244 3.06836,-1.88485c6.05846,-3.72162 12.1532,-7.37281 18.29207,-10.96016c2.22808,-1.312 4.43471,-2.66031 6.63699,-4.01516c6.58806,-3.91971 12.18523,-6.71567 19.88061,-4.68494zM316.52596,100.79197c-1.11873,0.65585 -1.11873,0.65585 -2.26006,1.32494c-7.21333,4.27286 -14.18828,8.86556 -21.08048,13.63694c-0.89278,0.61486 -1.78557,1.22972 -2.70541,1.86322c-31.18573,18.76566 -31.18573,18.76566 -51.15737,47.21175c-1.45228,15.88205 1.50625,28.76233 11.52065,41.29479c4.05948,4.50252 8.74886,8.18488 13.47972,11.95548c4.05449,3.23867 7.962,6.6379 11.88067,10.03849c7.54566,6.50662 15.25512,12.76277 23.16695,18.81866c1.52348,1.16626 3.04317,2.33746 4.55987,3.51254c2.39183,1.84789 4.79802,3.67531 7.20917,5.4979c0.73126,0.56713 1.46252,1.13425 2.21594,1.71857c4.3817,3.26592 7.79352,5.58199 13.34442,5.31351c3.09912,-1.76749 5.56842,-4.06806 8.15423,-6.50842c0.72692,-0.65537 1.45384,-1.31073 2.20278,-1.98596c1.46155,-1.32022 2.91541,-2.64901 4.36115,-3.98653c2.78323,-2.56945 5.62858,-5.06642 8.47275,-7.56802c1.44776,-1.29509 2.89473,-2.59106 4.33895,-3.89009c-1.79754,-4.33756 -4.2757,-6.79178 -7.78018,-9.87484c-1.06463,-0.93811 -2.12927,-1.87622 -3.22615,-2.84276c-4.12832,-3.49585 -8.35945,-6.8389 -12.6615,-10.11797c-2.97945,-2.57173 -5.27327,-5.00079 -7.45288,-8.28514c0,-1.97497 0,-3.94994 0,-5.98475c24.8846,0 49.7692,0 75.40788,0c3.05914,-15.29573 5.51599,-30.52572 -3.59085,-44.28717c-4.33623,-3.12969 -7.39311,-4.0473 -12.70738,-4.10838c-1.31756,-0.02369 -2.63512,-0.04739 -3.99261,-0.07179c-1.40911,-0.00765 -2.81822,-0.0153 -4.27004,-0.02317c-1.45275,-0.02149 -2.9055,-0.04297 -4.40226,-0.06511c-4.63417,-0.06479 -9.2682,-0.10534 -13.90266,-0.14529c-3.14435,-0.0397 -6.28868,-0.08099 -9.433,-0.12391c-7.7029,-0.10169 -15.40582,-0.18349 -23.10909,-0.25014c1.10249,-6.53495 3.17355,-8.14041 8.42074,-11.99288c6.99195,-4.67051 14.23473,-8.92 21.50302,-13.14308c-4.28532,-6.83481 -9.01055,-13.2616 -13.98936,-19.60006c-0.56905,-0.72615 -1.13811,-1.4523 -1.72441,-2.20045c-3.7935,-4.968 -3.7935,-4.968 -8.22524,-9.3202c-5.35799,0 -8.1373,1.54499 -12.56798,4.18933z" fill="#631313" stroke-width="1"/><path d="M327.59308,96.67278c2.99853,1.25242 4.30545,2.29542 6.36348,4.79248c0.69433,0.84091 1.38865,1.68181 2.10401,2.5482c5.76274,7.42547 11.39036,14.95101 16.97239,22.51295c-0.39499,0.78999 -0.78999,1.57997 -1.19695,2.3939c-0.78999,0 -1.57997,0 -2.3939,0c-1.47632,-1.62506 -1.47632,-1.62506 -3.12329,-3.89477c-0.60792,-0.82624 -1.21584,-1.6525 -1.84218,-2.50378c-0.94891,-1.31343 -0.94891,-1.31343 -1.91699,-2.6534c-4.65777,-6.39564 -9.44114,-12.52946 -14.66264,-18.47792c-14.02706,1.9258 -27.82827,14.03393 -39.18143,22.0337c-2.98977,2.10056 -5.99201,4.18254 -8.99583,6.26295c-2.14478,1.4896 -4.28932,2.97956 -6.43361,4.46987c-1.00696,0.69761 -2.01393,1.3952 -3.05141,2.11395c-10.53428,7.21547 -10.53428,7.21547 -19.16698,16.5136c-0.56009,0.75141 -1.12018,1.50283 -1.69724,2.27701c-6.49663,10.06341 -6.41962,19.434 -4.78312,31.13006c3.57876,14.66364 16.13202,23.89513 27.22594,33.04413c2.91927,2.43145 5.77894,4.92802 8.64253,7.42454c7.95696,6.91721 16.15195,13.38028 24.69909,19.5612c1.36748,1.03244 2.73429,2.06578 4.10049,3.09991c1.37518,1.01285 2.75133,2.02437 4.12855,3.03446c1.23127,0.91651 2.46253,1.83302 3.73112,2.7773c3.46478,2.13307 3.46478,2.13307 7.24716,1.89829c4.34922,-1.51877 6.66825,-3.56692 9.96836,-6.77025c1.13252,-1.07235 2.26504,-2.1447 3.43188,-3.24953c1.08932,-1.05074 2.17864,-2.10149 3.30096,-3.18408c1.78173,-1.68534 3.57533,-3.35832 5.38628,-5.01223c1.09241,-1.02528 1.09241,-1.02528 2.20688,-2.07129c0.65421,-0.4274 1.30841,-0.85479 1.98245,-1.29514c1.77747,0.59249 1.77747,0.59249 3.59085,1.19695c-2.11395,4.82146 -4.93299,7.26225 -8.91635,10.59021c-2.3532,1.98563 -4.62673,4.00533 -6.89181,6.08762c-1.36337,1.22382 -2.72708,2.44727 -4.09114,3.67034c-0.64389,0.60493 -1.28778,1.20987 -1.95118,1.83312c-3.0836,2.71577 -5.02696,4.11765 -9.18139,4.33398c-4.9489,-1.85506 -8.61338,-4.62177 -12.73163,-7.88771c-0.83656,-0.64707 -1.67313,-1.29414 -2.53505,-1.96082c-1.71111,-1.32462 -3.41822,-2.65443 -5.12122,-3.98945c-2.21192,-1.72455 -4.44224,-3.41861 -6.68843,-5.09815c-7.4413,-5.58234 -14.43337,-11.47978 -21.25055,-17.80932c-5.91388,-5.37469 -12.10767,-10.52225 -18.52468,-15.28918c-8.18015,-6.20564 -14.45409,-15.77113 -16.54691,-25.81393c-1.50459,-11.7565 -1.94196,-21.60704 5.50784,-31.2563c0.67272,-0.91343 1.34544,-1.82685 2.03856,-2.76795c8.37326,-10.28526 19.45596,-17.30083 30.27911,-24.76191c1.66079,-1.16442 3.32066,-2.33014 4.97951,-3.49733c10.16961,-7.11774 20.53469,-13.92148 31.16805,-20.32888c1.46938,-0.8931 2.92281,-1.81283 4.36115,-2.75509c3.28914,-2.07291 5.5195,-3.35639 9.4593,-3.27233z" fill="#eaecec" stroke-width="1"/><path d="M385.35062,155.25322c3.81528,-0.14962 3.81528,-0.14962 8.37865,1.19695c9.01325,12.77828 8.40903,28.24147 5.98475,43.09022c-2.96245,0.59249 -2.96245,0.59249 -5.98475,1.19695c0.18978,-1.37168 0.37956,-2.74335 0.5751,-4.1566c1.4981,-12.09389 3.0951,-26.04063 -4.16595,-36.53972c-2.46555,-2.97488 -2.46555,-2.97488 -4.7878,-4.7878z" fill="#e9e9e9" stroke-width="1"/><path d="M260.86777,140.88981c-1.8684,4.58608 -4.685,7.51862 -8.37865,10.77255c-2.76795,0.97252 -2.76795,0.97252 -4.7878,1.19695c1.63877,-3.76916 3.44148,-6.04203 6.58323,-8.67789c0.72827,-0.62335 1.45653,-1.2467 2.20688,-1.88893c1.98245,-1.40267 1.98245,-1.40267 4.37635,-1.40267z" fill="#e3e5e6" stroke-width="1"/><path d="M321.91224,101.39044c-3.21791,2.69608 -5.56153,4.64673 -9.5756,5.98475c-0.39499,-1.18498 -0.78999,-2.36996 -1.19695,-3.59085c6.73285,-3.74047 6.73285,-3.74047 10.77255,-2.3939z" fill="#e5e7e8" stroke-width="1"/><path d="M240.51961,186.37393c1.57997,0.39499 3.15995,0.78999 4.7878,1.19695c0.39499,1.97497 0.78999,3.94994 1.19695,5.98475c-1.18498,0.39499 -2.36996,0.78999 -3.59085,1.19695c-0.78999,-2.76496 -1.57997,-5.52991 -2.3939,-8.37865z" fill="#e0e2e3" stroke-width="1"/><path d="M240.51961,174.40442c2.74861,4.12291 3.04045,7.10764 3.59085,11.96951c-1.18498,0 -2.36996,0 -3.59085,0c0,-3.94994 0,-7.89987 0,-11.96951z" fill="#f7f9f9" stroke-width="1"/><path d="M234.52308,179.99996c0,-47.20762 38.26934,-85.47695 85.47696,-85.47695c47.20762,0 85.47696,38.26934 85.47696,85.47696c0,47.20762 -38.26934,85.47695 -85.47696,85.47695c-47.20762,0 -85.47696,-38.26933 -85.47696,-85.47695z" fill="url(#color-2)" stroke-width="0"/><path d="M171.81002,328.18998v-296.37997h296.37997v296.37998z" fill="none" stroke-width="0"/><path d="M334.19161,75.98285c10.00058,6.24368 15.9639,16.44835 22.09573,26.19683c0.98235,1.50287 1.96577,3.00505 2.95029,4.50649c0.91835,1.44226 1.83671,2.88453 2.7829,4.37049c0.82945,1.30083 1.65891,2.60164 2.51349,3.94188c2.03866,4.35293 2.29786,7.11966 1.79685,11.87142c-2.8372,4.84687 -6.22465,7.37831 -10.92233,10.24752c-0.96409,0.592 -1.9282,1.18398 -2.92152,1.7939c-1.10176,0.66822 -1.10176,0.66822 -2.22579,1.34993c1.61412,0.01252 3.22827,0.02503 4.89131,0.03793c6.01768,0.05359 12.03444,0.14171 18.05152,0.23997c2.59882,0.03768 5.19778,0.06614 7.79681,0.08501c3.74715,0.02883 7.49252,0.09137 11.23912,0.1602c1.1526,0.00164 2.30518,0.00329 3.49269,0.00498c7.78409,0.18712 12.38326,1.71773 18.80705,6.16759c5.35878,6.28707 8.36924,14.7582 8.39053,22.94316c0.00346,1.30158 0.00691,2.60315 0.01046,3.94417c-0.01035,1.34646 -0.02072,2.69293 -0.03139,4.08018c0.01035,1.31539 0.02072,2.63078 0.03139,3.98601c-0.01048,3.98503 -0.15378,7.93704 -0.36617,11.91621c-0.0492,1.33394 -0.0984,2.66789 -0.14909,4.04224c-0.38313,3.99334 -0.97356,6.99052 -2.52918,10.68824c-8.37132,6.69185 -17.8336,7.68509 -28.17415,7.64248c-1.34833,0.02025 -2.69667,0.0405 -4.08586,0.06135c-4.25646,0.05702 -8.51163,0.06922 -12.76842,0.07988c-2.90673,0.03102 -5.81342,0.065 -8.72008,0.102c-7.08104,0.08377 -14.16159,0.13088 -21.24308,0.14909c1.094,0.7112 2.18801,1.42242 3.31515,2.15518c1.44011,0.94598 2.88021,1.89194 4.36396,2.8666c1.42543,0.93216 2.85088,1.86433 4.3195,2.82474c7.36402,5.18532 12.37645,9.95856 14.9515,18.68514c-0.9864,8.91223 -9.71918,15.00609 -16.23701,20.33812c-27.6191,21.74555 -27.6191,21.74555 -33.40515,21.16462c-13.44346,-5.26493 -25.12181,-16.1505 -36.22989,-25.18202c-0.95202,-0.77399 -1.90403,-1.548 -2.8849,-2.34544c-10.34448,-8.43144 -20.58764,-16.94453 -30.59348,-25.7764c-0.75933,-0.66245 -1.51864,-1.32488 -2.30098,-2.00739c-15.17176,-13.28042 -30.30135,-28.31696 -33.10763,-49.27731c-0.70666,-19.42169 8.93835,-32.76897 21.57264,-46.54542c12.71649,-13.44601 26.16433,-23.85747 41.95783,-33.40515c1.13284,-0.69589 2.26567,-1.39177 3.43285,-2.10875c6.77814,-4.16371 13.59687,-8.24862 20.46497,-12.26211c2.49275,-1.46785 4.96151,-2.97633 7.42539,-4.49212c7.37065,-4.38533 13.63271,-7.51342 22.24221,-5.24146zM316.11327,91.38291c-1.25162,0.73376 -1.25162,0.73376 -2.52853,1.48233c-8.0702,4.78043 -15.8737,9.91869 -23.58462,15.25686c-0.99883,0.6879 -1.99768,1.3758 -3.02678,2.08455c-34.89026,20.99482 -34.89026,20.99482 -57.23432,52.82c-1.6248,17.76867 1.68518,32.17899 12.88918,46.20017c4.5417,5.03737 9.78813,9.15716 15.08097,13.37566c4.53612,3.62339 8.9078,7.42641 13.29197,11.23096c8.442,7.27954 17.06727,14.27885 25.91894,21.05412c1.70445,1.3048 3.40467,2.61513 5.10153,3.92979c2.67595,2.0674 5.36797,4.1119 8.06554,6.15099c0.81813,0.6345 1.63625,1.26899 2.47917,1.92272c4.9022,3.65388 8.71931,6.24507 14.92959,5.9447c3.46726,-1.97745 6.22989,-4.5513 9.12287,-7.28155c0.81327,-0.73322 1.62654,-1.46643 2.46445,-2.22187c1.63517,-1.47705 3.26173,-2.96368 4.87921,-4.46009c3.11385,-2.87467 6.2972,-5.66826 9.47922,-8.46702c1.61974,-1.44893 3.23859,-2.89885 4.85437,-4.35219c-2.01107,-4.85282 -4.78361,-7.59857 -8.70438,-11.04787c-1.1911,-1.04955 -2.3822,-2.09909 -3.60938,-3.18045c-4.61872,-3.91112 -9.35246,-7.65129 -14.16555,-11.31988c-3.33338,-2.87722 -5.89968,-5.59483 -8.3382,-9.26933c0,-2.20958 0,-4.41915 0,-6.69567c27.84062,0 55.68125,0 84.36553,0c3.42253,-17.1127 6.17123,-34.15185 -4.0174,-49.54801c-4.85133,-3.50146 -8.27133,-4.52808 -14.21688,-4.59641c-1.47407,-0.0265 -2.94814,-0.05302 -4.46689,-0.08032c-1.5765,-0.00856 -3.15299,-0.01712 -4.77728,-0.02592c-1.62532,-0.02404 -3.25064,-0.04807 -4.9252,-0.07284c-5.18466,-0.07249 -10.36916,-0.11785 -15.55415,-0.16255c-3.51787,-0.04442 -7.03571,-0.09061 -10.55354,-0.13863c-8.61792,-0.11377 -17.23587,-0.20529 -25.8542,-0.27985c1.23345,-7.31123 3.55053,-9.1074 9.42103,-13.41751c7.82252,-5.22532 15.92566,-9.9796 24.05735,-14.70434c-4.79437,-7.64671 -10.08091,-14.83694 -15.65115,-21.92834c-0.63665,-0.81241 -1.27331,-1.62482 -1.92925,-2.46184c-4.24413,-5.55815 -4.24413,-5.55815 -9.20231,-10.42734c-5.99446,0 -9.10392,1.72852 -14.06092,4.68698z" fill="url(#color-3)" stroke-width="1"/></g></g></svg>