<svg version="1.1" xmlns="http://www.w3.org/2000/svg" xmlns:xlink="http://www.w3.org/1999/xlink" width="247.61255" height="247.61256" viewBox="0,0,247.61255,247.61256"><g transform="translate(-196.19373,-56.19372)"><g stroke="none" stroke-miterlimit="10"><path d="M330.59761,102.32515c7.46794,4.66247 11.92105,12.28281 16.5,19.5625c0.73357,1.12227 1.46794,2.24402 2.20313,3.36523c0.68578,1.07701 1.37156,2.15402 2.07813,3.26367c0.61939,0.97139 1.23879,1.94278 1.87695,2.9436c1.52237,3.25055 1.71593,5.31661 1.3418,8.86499c-2.11868,3.61941 -4.64826,5.50976 -8.15625,7.65234c-0.71994,0.44207 -1.43988,0.88414 -2.18164,1.3396c-0.82274,0.49899 -0.82274,0.49899 -1.66211,1.00806c1.20535,0.00935 2.41071,0.01869 3.65259,0.02832c4.4937,0.04002 8.98672,0.10582 13.47998,0.1792c1.94067,0.02814 3.88145,0.04939 5.82227,0.06348c2.79819,0.02153 5.59504,0.06823 8.39282,0.11963c0.8607,0.00123 1.72139,0.00246 2.60817,0.00372c5.81277,0.13973 9.24721,1.28272 14.04417,4.60565c4.00167,4.69487 6.24973,11.02069 6.26563,17.13281c0.00258,0.97195 0.00516,1.94391 0.00781,2.94531c-0.00773,1.00547 -0.01547,2.01094 -0.02344,3.04688c0.00773,0.98227 0.01547,1.96453 0.02344,2.97656c-0.00783,2.97582 -0.11483,5.92699 -0.27344,8.89844c-0.03674,0.99612 -0.07348,1.99225 -0.11133,3.01855c-0.2861,2.98203 -0.72701,5.22017 -1.88867,7.98145c-6.25129,4.99714 -13.31725,5.73884 -21.03906,5.70703c-1.00687,0.01512 -2.01374,0.03024 -3.05112,0.04582c-3.17851,0.04258 -6.35606,0.05169 -9.53482,0.05965c-2.1706,0.02317 -4.34117,0.04854 -6.51172,0.07617c-5.28777,0.06256 -10.57517,0.09773 -15.86328,0.11133c0.81694,0.53109 1.63389,1.06219 2.47559,1.60938c1.0754,0.70641 2.1508,1.41281 3.25879,2.14063c1.06444,0.69609 2.12889,1.39219 3.22559,2.10938c5.49908,3.87214 9.24212,7.43656 11.16504,13.95313c-0.7366,6.65521 -7.2578,11.2058 -12.125,15.1875c-20.62458,16.2385 -20.62458,16.2385 -24.94531,15.80469c-10.03891,-3.93159 -18.75972,-12.06039 -27.05469,-18.80469c-0.71092,-0.57798 -1.42184,-1.15597 -2.1543,-1.75146c-7.72475,-6.29618 -15.37383,-12.65334 -22.8457,-19.24854c-0.56703,-0.49468 -1.13405,-0.98936 -1.71826,-1.49902c-11.32952,-9.91716 -22.62754,-21.1457 -24.72314,-36.79785c-0.5277,-14.50316 6.67472,-24.47024 16.10938,-34.75781c9.49605,-10.04082 19.53823,-17.81557 31.33203,-24.94531c0.84595,-0.51965 1.69189,-1.03931 2.56348,-1.57471c5.06158,-3.10925 10.15347,-6.15966 15.28223,-9.15674c1.86146,-1.09612 3.70501,-2.22257 5.54492,-3.35449c5.50404,-3.27475 10.18023,-5.61065 16.60937,-3.91406z" fill="#88a3ad" stroke-width="1"/><path d="M330.59761,102.32515c7.46794,4.66247 11.92105,12.28281 16.5,19.5625c0.73357,1.12227 1.46794,2.24402 2.20313,3.36523c0.68578,1.07701 1.37156,2.15402 2.07813,3.26367c0.61939,0.97139 1.23879,1.94278 1.87695,2.9436c1.52237,3.25055 1.71593,5.31661 1.3418,8.86499c-2.11868,3.61941 -4.64826,5.50976 -8.15625,7.65234c-0.71994,0.44207 -1.43988,0.88414 -2.18164,1.3396c-0.82274,0.49899 -0.82274,0.49899 -1.66211,1.00806c1.20535,0.00935 2.41071,0.01869 3.65259,0.02832c4.4937,0.04002 8.98672,0.10582 13.47998,0.1792c1.94067,0.02814 3.88145,0.04939 5.82227,0.06348c2.79819,0.02153 5.59504,0.06823 8.39282,0.11963c0.8607,0.00123 1.72139,0.00246 2.60817,0.00372c5.81277,0.13973 9.24721,1.28272 14.04417,4.60565c4.00167,4.69487 6.24973,11.02069 6.26563,17.13281c0.00258,0.97195 0.00516,1.94391 0.00781,2.94531c-0.00773,1.00547 -0.01547,2.01094 -0.02344,3.04688c0.00773,0.98227 0.01547,1.96453 0.02344,2.97656c-0.00783,2.97582 -0.11483,5.92699 -0.27344,8.89844c-0.03674,0.99612 -0.07348,1.99225 -0.11133,3.01855c-0.2861,2.98203 -0.72701,5.22017 -1.88867,7.98145c-6.25129,4.99714 -13.31725,5.73884 -21.03906,5.70703c-1.00687,0.01512 -2.01374,0.03024 -3.05112,0.04582c-3.17851,0.04258 -6.35606,0.05169 -9.53482,0.05965c-2.1706,0.02317 -4.34117,0.04854 -6.51172,0.07617c-5.28777,0.06256 -10.57517,0.09773 -15.86328,0.11133c0.81694,0.53109 1.63389,1.06219 2.47559,1.60938c1.0754,0.70641 2.1508,1.41281 3.25879,2.14063c1.06444,0.69609 2.12889,1.39219 3.22559,2.10938c5.49908,3.87214 9.24212,7.43656 11.16504,13.95313c-0.7366,6.65521 -7.2578,11.2058 -12.125,15.1875c-20.62458,16.2385 -20.62458,16.2385 -24.94531,15.80469c-10.03891,-3.93159 -18.75972,-12.06039 -27.05469,-18.80469c-0.71092,-0.57798 -1.42184,-1.15597 -2.1543,-1.75146c-7.72475,-6.29618 -15.37383,-12.65334 -22.8457,-19.24854c-0.56703,-0.49468 -1.13405,-0.98936 -1.71826,-1.49902c-11.32952,-9.91716 -22.62754,-21.1457 -24.72314,-36.79785c-0.5277,-14.50316 6.67472,-24.47024 16.10938,-34.75781c9.49605,-10.04082 19.53823,-17.81557 31.33203,-24.94531c0.84595,-0.51965 1.69189,-1.03931 2.56348,-1.57471c5.06158,-3.10925 10.15347,-6.15966 15.28223,-9.15674c1.86146,-1.09612 3.70501,-2.22257 5.54492,-3.35449c5.50404,-3.27475 10.18023,-5.61065 16.60938,-3.91406zM317.09761,113.82515c-0.93465,0.54793 -0.93465,0.54793 -1.88818,1.10693c-6.02642,3.56979 -11.85369,7.40679 -17.61182,11.39307c-0.74588,0.51369 -1.49177,1.02738 -2.26025,1.55664c-26.05432,15.67789 -26.05432,15.67789 -42.73975,39.44336c-1.21332,13.26876 1.25841,24.02967 9.625,34.5c3.39152,3.76166 7.30929,6.83811 11.26172,9.98828c3.38735,2.70577 6.6519,5.54568 9.92578,8.38672c6.30407,5.436 12.74499,10.66274 19.35498,15.72217c1.2728,0.97436 2.54244,1.95285 3.80957,2.93457c1.99827,1.54383 4.00854,3.07056 6.02295,4.59326c0.61094,0.47381 1.22187,0.94762 1.85132,1.43579c3.66072,2.72853 6.51115,4.66351 11.14868,4.43921c2.58918,-1.47666 4.65217,-3.39869 6.8125,-5.4375c0.60731,-0.54753 1.21462,-1.09506 1.84033,-1.65918c1.22106,-1.10299 2.4357,-2.21313 3.64355,-3.33057c2.32527,-2.14666 4.70243,-4.23277 7.07861,-6.32275c1.20954,-1.08199 2.41842,-2.16472 3.625,-3.25c-1.50177,-3.62384 -3.57216,-5.67424 -6.5,-8.25c-0.88945,-0.78375 -1.77891,-1.5675 -2.69531,-2.375c-3.44903,-2.92063 -6.98396,-5.7136 -10.57813,-8.45312c-2.4892,-2.14857 -4.40559,-4.17794 -6.22656,-6.92187c0,-1.65 0,-3.3 0,-5c20.79,0 41.58,0 63,0c2.55578,-12.77892 4.60837,-25.50291 -3,-37c-3.62273,-2.61472 -6.17662,-3.38134 -10.61646,-3.43237c-1.10076,-0.01979 -2.20153,-0.03959 -3.33565,-0.05998c-1.17725,-0.00639 -2.3545,-0.01278 -3.56743,-0.01936c-1.21371,-0.01795 -2.42742,-0.0359 -3.6779,-0.0544c-3.87165,-0.05413 -7.74318,-0.08801 -11.61507,-0.12138c-2.62697,-0.03317 -5.25392,-0.06766 -7.88086,-0.10352c-6.43544,-0.08496 -12.87089,-0.1533 -19.30664,-0.20898c0.92108,-5.45967 2.65136,-6.80096 7.03516,-10.01953c5.84147,-3.90201 11.8925,-7.45227 17.96484,-10.98047c-3.5802,-5.71019 -7.52792,-11.07949 -11.6875,-16.375c-0.47542,-0.60667 -0.95084,-1.21333 -1.44067,-1.83838c-3.1693,-4.15055 -3.1693,-4.15055 -6.87183,-7.78662c-4.47637,0 -6.79836,1.29077 -10.5,3.5z" fill="#060606" stroke-width="1"/><path d="M326.34371,110.38375c2.50514,1.04634 3.59702,1.91772 5.31641,4.00391c0.58008,0.70254 1.16016,1.40508 1.75781,2.12891c4.81452,6.20366 9.51615,12.49092 14.17969,18.80859c-0.33,0.66 -0.66,1.32 -1,2c-0.66,0 -1.32,0 -2,0c-1.2334,-1.35767 -1.2334,-1.35767 -2.60937,-3.25391c-0.50789,-0.69029 -1.01578,-1.38059 -1.53906,-2.0918c-0.79277,-1.09731 -0.79277,-1.09731 -1.60156,-2.2168c-3.89136,-5.34328 -7.88766,-10.46782 -12.25,-15.4375c-11.719,1.60892 -23.24931,11.72474 -32.73438,18.4082c-2.49782,1.75493 -5.00606,3.49433 -7.51562,5.23242c-1.79187,1.2445 -3.58354,2.48929 -5.375,3.73438c-0.84127,0.58282 -1.68255,1.16563 -2.54932,1.76611c-8.80093,6.02821 -8.80093,6.02821 -16.01318,13.79639c-0.46793,0.62777 -0.93586,1.25555 -1.41797,1.90234c-5.42765,8.40754 -5.36331,16.23626 -3.99609,26.00781c2.9899,12.25083 13.4776,19.96334 22.74609,27.60693c2.43892,2.03137 4.82805,4.11715 7.22046,6.20288c6.64769,5.77903 13.49425,11.17864 20.63501,16.34253c1.14247,0.86256 2.28438,1.72587 3.42578,2.58984c1.1489,0.84619 2.29862,1.69127 3.44922,2.53516c1.02867,0.7657 2.05734,1.53141 3.11719,2.32031c2.89467,1.78209 2.89467,1.78209 6.05469,1.58594c3.63358,-1.26887 5.57103,-2.98001 8.32813,-5.65625c0.94617,-0.8959 1.89234,-1.7918 2.86719,-2.71484c0.91008,-0.87785 1.82016,-1.7557 2.75781,-2.66016c1.48856,-1.40803 2.98703,-2.80573 4.5,-4.1875c0.91266,-0.85658 0.91266,-0.85658 1.84375,-1.73047c0.54656,-0.35707 1.09312,-0.71414 1.65625,-1.08203c1.485,0.495 1.485,0.495 3,1c-1.76611,4.02812 -4.1213,6.06729 -7.44922,8.84766c-1.966,1.65891 -3.86543,3.34628 -5.75781,5.08594c-1.13904,1.02245 -2.27836,2.04459 -3.41797,3.06641c-0.53794,0.50539 -1.07588,1.01079 -1.63013,1.53149c-2.57621,2.26891 -4.19981,3.44012 -7.67065,3.62085c-4.13459,-1.54982 -7.1961,-3.86129 -10.63672,-6.58984c-0.69891,-0.5406 -1.39783,-1.0812 -2.11792,-1.63818c-1.42956,-1.10666 -2.85577,-2.21766 -4.27856,-3.33301c-1.84796,-1.44079 -3.7113,-2.8561 -5.58789,-4.25928c-6.21688,-4.6638 -12.05845,-9.59086 -17.75391,-14.87891c-4.94079,-4.49032 -10.11543,-8.79088 -15.47656,-12.77344c-6.83416,-5.18454 -12.07576,-13.17609 -13.82422,-21.56641c-1.25702,-9.82204 -1.62242,-18.05174 4.60156,-26.11328c0.56203,-0.76313 1.12406,-1.52625 1.70313,-2.3125c6.99549,-8.59289 16.25461,-14.45409 25.29688,-20.6875c1.38752,-0.97282 2.77427,-1.94673 4.16016,-2.92187c8.49627,-5.94656 17.15584,-11.63079 26.03955,-16.98389c1.2276,-0.74615 2.44188,-1.51454 3.64355,-2.30176c2.74793,-1.73183 4.6113,-2.80412 7.90283,-2.73389z" fill="#eaecec" stroke-width="1"/><path d="M374.59761,159.32515c3.1875,-0.125 3.1875,-0.125 7,1c7.53018,10.6757 7.02538,23.59452 5,36c-2.475,0.495 -2.475,0.495 -5,1c0.15855,-1.14598 0.31711,-2.29195 0.48047,-3.47266c1.2516,-10.10392 2.58582,-21.75581 -3.48047,-30.52734c-2.05986,-2.48538 -2.05986,-2.48538 -4,-4z" fill="#e9e9e9" stroke-width="1"/><path d="M270.59761,147.32515c-1.56097,3.83147 -3.91411,6.28148 -7,9c-2.3125,0.8125 -2.3125,0.8125 -4,1c1.36912,-3.14897 2.87521,-5.04785 5.5,-7.25c0.60844,-0.52078 1.21687,-1.04156 1.84375,-1.57812c1.65625,-1.17187 1.65625,-1.17187 3.65625,-1.17187z" fill="#e3e5e6" stroke-width="1"/><path d="M321.59761,114.32515c-2.68842,2.25246 -4.64642,3.88214 -8,5c-0.33,-0.99 -0.66,-1.98 -1,-3c5.625,-3.125 5.625,-3.125 9,-2z" fill="#e5e7e8" stroke-width="1"/><path d="M253.59761,185.32515c1.32,0.33 2.64,0.66 4,1c0.33,1.65 0.66,3.3 1,5c-0.99,0.33 -1.98,0.66 -3,1c-0.66,-2.31 -1.32,-4.62 -2,-7z" fill="#e0e2e3" stroke-width="1"/><path d="M253.59761,175.32515c2.29634,3.44451 2.54016,5.93812 3,10c-0.99,0 -1.98,0 -3,0c0,-3.3 0,-6.6 0,-10z" fill="#f7f9f9" stroke-width="1"/><path d="M196.19374,303.80628v-247.61255h247.61255v247.61256z" fill="none" stroke-width="0"/></g></g></svg>