<svg version="1.1" xmlns="http://www.w3.org/2000/svg" xmlns:xlink="http://www.w3.org/1999/xlink" width="167.29481" height="167.29482" viewBox="0,0,167.29481,167.29482"><g transform="translate(-236.3526,-117.79318)"><g stroke="none" stroke-miterlimit="10"><path d="M298.07557,222.94059v-43h44.42442v43z" fill="#00ff00" stroke-width="0"/><path d="M302.49999,179.94059c11.88,0 23.76,0 36,0c0,14.19 0,28.38 0,43c-12.21,0 -24.42,0 -37,0c-0.02063,-4.125 -0.04125,-8.25 -0.0625,-12.5c-0.0091,-1.26393 -0.01821,-2.52785 -0.02759,-3.83008c-0.02122,-8.97744 0.52673,-17.65615 1.09009,-26.66992z" fill="#fe0000" stroke-width="1"/><path d="M295.49998,179.94059c1.65,0 3.3,0 5,0c0,14.19 0,28.38 0,43c-1.65,0 -3.3,0 -5,0c0,-14.19 0,-28.38 0,-43z" fill="#050bf8" stroke-width="1"/><path d="M340.49999,179.94059c1.32,0 2.64,0 4,0c0,14.19 0,28.38 0,43c-1.32,0 -2.64,0 -4,0c0,-14.19 0,-28.38 0,-43z" fill="#0000ff" stroke-width="1"/><path d="M236.3526,285.08799v-167.29481h167.29481v167.29482z" fill="none" stroke-width="0"/></g></g></svg>