<svg version="1.1" xmlns="http://www.w3.org/2000/svg" xmlns:xlink="http://www.w3.org/1999/xlink" width="255.55607" height="255.55608" viewBox="0,0,255.55607,255.55608"><defs><radialGradient cx="320.00003" cy="179.99996" r="80.75326" gradientUnits="userSpaceOnUse" id="color-1"><stop offset="0" stop-color="#c25858"/><stop offset="1" stop-color="#770101"/></radialGradient></defs><g transform="translate(-192.22196,-52.22196)"><g stroke="none" stroke-miterlimit="10"><path d="M330.93756,99.8333c7.70751,4.81205 12.30348,12.67685 17.02933,20.19008c0.75711,1.15827 1.51504,2.316 2.2738,3.47318c0.70777,1.11156 1.41557,2.22312 2.14479,3.36836c0.63926,1.00254 1.27853,2.0051 1.93716,3.03804c1.57122,3.35483 1.77097,5.48717 1.38485,9.14938c-2.18665,3.73552 -4.79738,5.68653 -8.41791,7.89783c-0.74303,0.45625 -1.48607,0.9125 -2.25162,1.38258c-0.84913,0.51499 -0.84914,0.51499 -1.71544,1.04039c1.24401,0.00964 2.48806,0.01929 3.76978,0.02924c4.63786,0.0413 9.27501,0.10921 13.91242,0.18495c2.00293,0.02904 4.00597,0.05098 6.00905,0.06551c2.88796,0.02222 5.77453,0.07042 8.66207,0.12347c0.88831,0.00126 1.77662,0.00253 2.69184,0.00383c5.99926,0.14421 9.54386,1.32388 14.49471,4.7534c4.13004,4.84549 6.45023,11.37424 6.46664,17.68243c0.00266,1.00313 0.00532,2.00627 0.00806,3.0398c-0.00798,1.03772 -0.01596,2.07545 -0.02419,3.14462c0.00798,1.01378 0.01596,2.02754 0.02419,3.07204c-0.00808,3.07129 -0.11851,6.11714 -0.28221,9.1839c-0.03792,1.02807 -0.07584,2.05617 -0.1149,3.1154c-0.29528,3.07769 -0.75034,5.38764 -1.94926,8.23749c-6.45182,5.15745 -13.74447,5.92295 -21.71399,5.8901c-1.03918,0.01561 -2.07834,0.03121 -3.149,0.0473c-3.28047,0.04394 -6.55998,0.05335 -9.84071,0.06156c-2.24023,0.02391 -4.48043,0.05009 -6.72062,0.07862c-5.45741,0.06457 -10.91443,0.10086 -16.37218,0.1149c0.84315,0.54812 1.68631,1.09626 2.55502,1.661c1.1099,0.72907 2.2198,1.45814 3.36334,2.20932c1.09859,0.71842 2.19719,1.43684 3.32908,2.17704c5.67549,3.99636 9.53861,7.67513 11.52322,14.40075c-0.76024,6.86871 -7.49063,11.5653 -12.51398,15.67472c-21.28623,16.75944 -21.28623,16.75945 -25.74557,16.31171c-10.36097,-4.05772 -19.36155,-12.4473 -27.92262,-19.40796c-0.73373,-0.59652 -1.46745,-1.19305 -2.22341,-1.80765c-7.97257,-6.49815 -15.86703,-13.05926 -23.57859,-19.86604c-0.58522,-0.51056 -1.17044,-1.02111 -1.77339,-1.54711c-11.69297,-10.23531 -23.35344,-21.82407 -25.51627,-37.97835c-0.54463,-14.96843 6.88884,-25.25525 16.62616,-35.87286c9.80069,-10.36294 20.16502,-18.3871 32.33717,-25.74557c0.87308,-0.53632 1.74616,-1.07266 2.64572,-1.62522c5.22396,-3.209 10.47919,-6.35728 15.77248,-9.4505c1.92117,-1.13128 3.82388,-2.29387 5.72281,-3.46209c5.68061,-3.37981 10.50682,-5.79064 17.1422,-4.03962z" fill="url(#color-1)" stroke-width="1"/><path d="M330.93756,99.8333c7.70751,4.81205 12.30348,12.67685 17.02933,20.19008c0.75711,1.15827 1.51504,2.316 2.2738,3.47318c0.70777,1.11156 1.41557,2.22312 2.14479,3.36836c0.63926,1.00254 1.27853,2.0051 1.93716,3.03804c1.57122,3.35483 1.77097,5.48717 1.38485,9.14938c-2.18665,3.73552 -4.79738,5.68653 -8.41791,7.89783c-0.74303,0.45625 -1.48607,0.9125 -2.25162,1.38258c-0.84913,0.51499 -0.84914,0.51499 -1.71544,1.04039c1.24401,0.00964 2.48806,0.01929 3.76978,0.02924c4.63786,0.0413 9.27501,0.10921 13.91242,0.18495c2.00293,0.02904 4.00597,0.05098 6.00905,0.06551c2.88796,0.02222 5.77453,0.07042 8.66207,0.12347c0.88831,0.00126 1.77662,0.00253 2.69184,0.00383c5.99926,0.14421 9.54386,1.32388 14.49471,4.7534c4.13004,4.84549 6.45023,11.37424 6.46664,17.68243c0.00266,1.00313 0.00532,2.00627 0.00806,3.0398c-0.00798,1.03772 -0.01596,2.07545 -0.02419,3.14462c0.00798,1.01378 0.01596,2.02754 0.02419,3.07204c-0.00808,3.07129 -0.11851,6.11714 -0.28221,9.1839c-0.03792,1.02807 -0.07584,2.05617 -0.1149,3.1154c-0.29528,3.07769 -0.75034,5.38764 -1.94926,8.23749c-6.45182,5.15745 -13.74447,5.92295 -21.71399,5.8901c-1.03918,0.01561 -2.07834,0.03121 -3.149,0.0473c-3.28047,0.04394 -6.55998,0.05335 -9.84071,0.06156c-2.24023,0.02391 -4.48043,0.05009 -6.72062,0.07862c-5.45741,0.06457 -10.91443,0.10086 -16.37218,0.1149c0.84315,0.54812 1.68631,1.09626 2.55502,1.661c1.1099,0.72907 2.2198,1.45814 3.36334,2.20932c1.09859,0.71842 2.19719,1.43684 3.32908,2.17704c5.67549,3.99636 9.53861,7.67513 11.52322,14.40075c-0.76024,6.86871 -7.49063,11.5653 -12.51398,15.67472c-21.28623,16.75944 -21.28623,16.75945 -25.74557,16.31171c-10.36097,-4.05772 -19.36155,-12.4473 -27.92262,-19.40796c-0.73373,-0.59652 -1.46745,-1.19305 -2.22341,-1.80765c-7.97257,-6.49815 -15.86703,-13.05926 -23.57859,-19.86604c-0.58522,-0.51056 -1.17044,-1.02111 -1.77339,-1.54711c-11.69297,-10.23531 -23.35344,-21.82407 -25.51627,-37.97835c-0.54463,-14.96843 6.88884,-25.25525 16.62616,-35.87286c9.80069,-10.36294 20.16502,-18.3871 32.33717,-25.74557c0.87308,-0.53632 1.74616,-1.07266 2.64572,-1.62522c5.22396,-3.209 10.47919,-6.35728 15.77248,-9.4505c1.92117,-1.13128 3.82388,-2.29387 5.72281,-3.46209c5.68061,-3.37981 10.50681,-5.79064 17.14221,-4.03962zM317.00448,111.70222c-0.96463,0.5655 -0.96463,0.56551 -1.94875,1.14245c-6.21975,3.6843 -12.23396,7.6444 -18.17681,11.75856c-0.76981,0.53016 -1.53964,1.06034 -2.33276,1.60657c-26.89015,16.18084 -26.89015,16.18084 -44.11086,40.70873c-1.25225,13.69443 1.29879,24.80054 9.93379,35.60678c3.50032,3.88234 7.54377,7.05747 11.623,10.30871c3.49602,2.79257 6.8653,5.72359 10.2442,8.65577c6.50631,5.61038 13.15386,11.0048 19.9759,16.22654c1.31363,1.00561 2.62399,2.01551 3.93178,3.02871c2.06238,1.59337 4.13714,3.16907 6.21617,4.74061c0.63054,0.48902 1.26106,0.97802 1.91071,1.48185c3.77815,2.81606 6.72004,4.81312 11.50633,4.58162c2.67224,-1.52403 4.80141,-3.50771 7.03105,-5.61194c0.6268,-0.5651 1.25359,-1.13019 1.89937,-1.71241c1.26024,-1.13837 2.51383,-2.28413 3.76043,-3.43741c2.39987,-2.21551 4.85329,-4.36855 7.3057,-6.52559c1.24835,-1.11669 2.49599,-2.23417 3.74129,-3.35427c-1.54994,-3.74009 -3.68676,-5.85627 -6.70852,-8.51466c-0.91798,-0.8089 -1.83599,-1.61778 -2.78177,-2.45119c-3.55968,-3.01432 -7.20801,-5.89689 -10.91749,-8.72429c-2.56905,-2.2175 -4.54692,-4.31197 -6.42631,-7.14393c0,-1.70293 0,-3.40587 0,-5.16039c21.45695,0 42.9139,0 65.02107,0c2.63778,-13.18887 4.75622,-26.32106 -3.09623,-38.18697c-3.73894,-2.6986 -6.37477,-3.48981 -10.95705,-3.54247c-1.13607,-0.02043 -2.27215,-0.04087 -3.44265,-0.06191c-1.21503,-0.0066 -2.43003,-0.0132 -3.68188,-0.01998c-1.25265,-0.01852 -2.5053,-0.03705 -3.79588,-0.05615c-3.99585,-0.05587 -7.99157,-0.09084 -11.98769,-0.12528c-2.71124,-0.03423 -5.42247,-0.06983 -8.13368,-0.10684c-6.64188,-0.08769 -13.28379,-0.15823 -19.92601,-0.21569c0.95063,-5.63483 2.73642,-7.01914 7.26085,-10.34095c6.02887,-4.02719 12.27401,-7.69135 18.54116,-11.33273c-3.69505,-5.89338 -7.76941,-11.43493 -12.06244,-16.90032c-0.49067,-0.62612 -0.98134,-1.25225 -1.48688,-1.89735c-3.27097,-4.2837 -3.27098,-4.2837 -7.09228,-8.03642c-4.61998,0 -7.01645,1.33219 -10.83684,3.61228z" fill="#410000" stroke-width="1"/><path d="M326.54721,108.15042c2.5855,1.07991 3.71242,1.97923 5.48697,4.13236c0.59868,0.72508 1.19737,1.45016 1.8142,2.19721c4.96897,6.40268 9.82143,12.89162 14.63458,19.41198c-0.3406,0.68118 -0.68117,1.36234 -1.03207,2.06417c-0.68117,0 -1.36234,0 -2.06417,0c-1.27296,-1.40124 -1.27297,-1.40122 -2.69308,-3.35829c-0.52419,-0.71243 -1.04837,-1.42488 -1.58843,-2.15891c-0.8182,-1.13252 -0.81819,-1.13252 -1.65293,-2.28792c-4.01619,-5.51469 -8.1407,-10.80363 -12.64298,-15.93274c-12.09496,1.66054 -23.99516,12.10087 -33.78452,18.99874c-2.57796,1.81123 -5.16665,3.60643 -7.75673,5.40028c-1.84935,1.28443 -3.69849,2.56915 -5.54743,3.85419c-0.86826,0.60153 -1.73654,1.20303 -2.6311,1.82276c-9.08327,6.2216 -9.08327,6.22159 -16.52689,14.23898c-0.48294,0.64791 -0.96588,1.29583 -1.46346,1.96337c-5.60178,8.67725 -5.53537,16.75713 -4.12428,26.84216c3.08582,12.64384 13.90997,20.60378 23.47579,28.49258c2.51715,2.09654 4.98294,4.24923 7.45211,6.40188c6.86095,5.96443 13.92715,11.53725 21.29698,16.8668c1.17913,0.89022 2.35766,1.78124 3.53567,2.67292c1.18575,0.87334 2.37235,1.74552 3.55988,2.61649c1.06168,0.79026 2.12333,1.58054 3.21719,2.39475c2.98753,1.83926 2.98753,1.83926 6.24893,1.63681c3.75015,-1.30958 5.74975,-3.07561 8.59531,-5.83771c0.97652,-0.92463 1.95304,-1.84929 2.95917,-2.80193c0.93927,-0.90601 1.87855,-1.81203 2.84629,-2.74551c1.53631,-1.4532 3.08285,-2.89574 4.64436,-4.32183c0.94193,-0.88405 0.94193,-0.88405 1.9029,-1.78599c0.5641,-0.36853 1.12818,-0.73705 1.70938,-1.11674c1.53264,0.51087 1.53263,0.51087 3.09623,1.03207c-1.82277,4.15734 -4.25351,6.26194 -7.68819,9.1315c-2.02907,1.71212 -3.98944,3.45363 -5.94252,5.2491c-1.17558,1.05525 -2.35146,2.11018 -3.52763,3.16479c-0.55521,0.5216 -1.1104,1.04323 -1.68243,1.58062c-2.65886,2.34169 -4.33455,3.55049 -7.91673,3.73701c-4.26723,-1.59954 -7.42695,-3.98517 -10.97794,-6.80125c-0.72133,-0.55795 -1.44266,-1.11589 -2.18587,-1.69073c-1.47542,-1.14217 -2.94738,-2.28881 -4.41581,-3.43992c-1.90724,-1.48701 -3.83037,-2.94772 -5.76715,-4.39592c-6.41632,-4.81341 -12.44529,-9.89855 -18.32347,-15.35623c-5.09929,-4.63436 -10.43993,-9.07289 -15.97305,-13.18322c-7.0534,-5.35086 -12.46314,-13.59878 -14.26771,-22.25826c-1.29735,-10.13713 -1.67447,-18.63084 4.74918,-26.95099c0.58007,-0.78761 1.16013,-1.57521 1.75777,-2.38669c7.2199,-8.86855 16.77606,-14.91779 26.10841,-21.35116c1.43203,-1.00403 2.86327,-2.00918 4.29363,-3.01561c8.76884,-6.13732 17.70621,-12.00391 26.87491,-17.52873c1.26698,-0.77009 2.52021,-1.56313 3.76043,-2.37561c2.83609,-1.78738 4.75923,-2.89407 8.15636,-2.8216z" fill="#eaecec" stroke-width="1"/><path d="M376.3491,158.66189c3.28976,-0.12902 3.28976,-0.12901 7.22457,1.03208c7.77175,11.01817 7.25076,24.35143 5.16039,37.15489c-2.5544,0.51087 -2.5544,0.51088 -5.16039,1.03208c0.16363,-1.18275 0.32728,-2.36548 0.49588,-3.58407c1.29176,-10.42806 2.66877,-22.45374 -3.59212,-31.50667c-2.12594,-2.56511 -2.12594,-2.56511 -4.12832,-4.12832z" fill="#e9e9e9" stroke-width="1"/><path d="M269.01274,146.27691c-1.61104,3.95438 -4.03967,6.48301 -7.22456,9.28872c-2.38669,0.83857 -2.38669,0.83857 -4.12832,1.03208c1.41304,-3.24998 2.96744,-5.20978 5.67644,-7.48258c0.62796,-0.53749 1.25591,-1.07498 1.9029,-1.62875c1.70938,-1.20946 1.70938,-1.20946 3.77355,-1.20946z" fill="#e3e5e6" stroke-width="1"/><path d="M321.64884,112.21827c-2.77467,2.32473 -4.79548,4.00668 -8.25665,5.16039c-0.3406,-1.02177 -0.68117,-2.04351 -1.03207,-3.09623c5.80547,-3.22524 5.80547,-3.22524 9.28872,-2.06417z" fill="#e5e7e8" stroke-width="1"/><path d="M251.46737,185.49596c1.36234,0.3406 2.7247,0.68117 4.12832,1.03207c0.3406,1.70293 0.68117,3.40587 1.03207,5.16039c-1.02177,0.3406 -2.04352,0.68118 -3.09624,1.03208c-0.68117,-2.38411 -1.36234,-4.76821 -2.06417,-7.22457z" fill="#e0e2e3" stroke-width="1"/><path d="M251.46737,175.17519c2.37,3.55501 2.62164,6.12861 3.09623,10.32081c-1.02177,0 -2.04351,0 -3.09623,0c0,-3.40587 0,-6.81173 0,-10.32081z" fill="#f7f9f9" stroke-width="1"/><path d="M192.22196,307.77802v-255.55606h255.55607v255.55608z" fill="none" stroke-width="0"/></g></g></svg>